<?xml version="1.0" encoding="utf-8"?>
<!-- Generator: Adobe Illustrator 25.4.1, SVG Export Plug-In . SVG Version: 6.00 Build 0)  -->
<svg version="1.1" id="Layer_1" xmlns="http://www.w3.org/2000/svg" xmlns:xlink="http://www.w3.org/1999/xlink" x="0px" y="0px"
	 viewBox="0 0 629.6416 522.34937" style="enable-background:new 0 0 629.6416 522.34937;" xml:space="preserve">
<g>
	<g>
		<g>
			<path d="M191.98734,213.58914c5.84192,2.52327,9.51294,7.18117,12.4021,12.73824
				c3.83716,7.3808,7.4635,14.96695,12.16321,21.78761c23.58789,34.23254,69.29028,26.99985,86.62231-0.03319
				c1.94482-3.03349,3.85474-6.08954,5.6134-8.87045v49.18193c-3.76257-2.10144-7.69849-4.9223-12.07251-6.604
				c-7.49121-2.88016-15.74902-3.84744-22.54688-10.21765c1.1582,10.60977,3.79834,19.5777,10.26685,27.02655
				c7.53833,8.68088,17.28528,11.91464,28.63269,10.81628c4.95227,21.26733,6.74707,42.29852,2.86023,64.31558
				c-4.47388-6.8187-10.05774-11.29385-16.58545-14.6261c8.39014,10.78647,13.78638,23.32065,12.40991,29.51648
				c2.8457-0.15652,5.70154-0.15598,8.52893-0.46747c0.21802-1.08273,0.33044-1.72568,0.49292-2.35522
				c3.49548-13.54477,5.87012-27.26556,6.01489-41.28259c0.02637-2.5549,0.60388-4.00977,2.89136-5.4115
				c21.15613-12.96457,19.45569-38.1153,11.96155-51.00043c-2.73499,11.05652-13.53589,15.60464-19.02502,25.32672
				c-5.74805-25.85803-7.98779-51.11105-7.02686-76.724c3.63062,6.91086,7.97852,13.12471,13.91309,18.11758
				c14.06995,11.83731,30.54675,13.44724,47.87903,11.0542c18.56226-2.5629,34.63049-11.04349,50.01172-21.21553
				c7.16028-4.73531,10.5896-11.06796,8.99255-19.51352c-2.00586-10.60603,1.45874-19.55627,7.41614-27.95499
				c1.98376-2.79674,4.05176-5.55569,5.771-8.51233c1.88513-3.24182,3.69836-6.58357,5.02271-10.07887
				c1.6825-4.44113,0.74829-6.30441-3.61096-8.36899c-6.15149-2.91339-12.72009-3.54468-19.41528-3.13635
				c-15.86121,0.96738-29.55798,7.29459-41.85461,17.03819c-0.80676,0.63925-1.58411,1.3156-2.38916,1.95711
				c-0.69995,0.55788-1.41968,1.09088-2.72559,2.09003c6.67065-17.55284,7.7135-34.73642,3.77795-52.26169
				c-0.26331-1.17264-0.29565-2.56895,0.08655-3.68198c1.07336-3.12561,2.34363-6.19096,3.6748-9.21913
				c2.57703-5.86227,7.05493-9.61469,13.36145-10.57837c3.47644-0.53117,7.10071-0.09509,11.01233-0.09509
				c-3.21716-5.60942-7.91284-8.99416-12.99268-11.88232c-12.12183-6.89212-24.88647-10.78419-39.0083-7.61457
				c-1.91565-7.21977-6.38696-12.07833-12.57288-15.38978c-9.64844-5.16492-19.3678-10.19778-29.07532-15.2516
				c-4.37-2.27501-8.88843-3.47012-13.87183-2.06374c-1.03809,0.29295-2.50134-0.05423-3.49158-0.60468
				c-5.02075-2.79084-9.75159-2.08201-14.09937,1.21342c-2.15881,1.6363-4.13318,3.66756-5.73755,5.85296
				c-3.57666,4.87159-8.24744,8.05303-13.71777,10.45482c-3.52454,1.54745-7.27783,3.24615-9.97607,5.86021
				c-5.31372,5.14782-11.46985,6.38844-18.47656,6.51233c-3.74695,0.06622-7.99963,0.70673-11.10693,2.59629
				c-11.79724,7.17371-15.42969,25.38417-7.98706,36.92928c0.69946,1.08493,1.07288,2.79733,0.7887,4.0323
				c-2.06726,8.98587-1.84387,17.92949,0.13501,26.86288c3.50085,15.80394,11.21997,29.58797,20.5459,42.58949
				c0.74512,1.03879,1.49487,2.07426,2.53882,3.52225c-1.28699,0-1.85352-0.00327-2.41992,0.0005
				c-8.81018,0.05859-16.28931-3.80959-23.82117-7.77638c-4.71729-2.48442-9.60803-4.93948-14.71436-6.32993
				c-16.48462-4.48888-32.71936,7.77449-33.19568,24.89641C179.5159,211.58739,185.5126,210.79251,191.98734,213.58914z
				 M304.4169,301.80975c-5.75391-3.47275-11.50769-6.94553-17.26147-10.41827c0.16858-0.28415,0.33716-0.5683,0.50574-0.85245
				c5.79578,3.45694,11.59143,6.91388,17.38721,10.37082C304.8378,301.20984,304.62735,301.5098,304.4169,301.80975z
				 M283.90787,286.16486c5.51086,0.2941,20.78845,8.76334,23.99353,12.99295
				C300.21463,294.9953,292.11417,290.60873,283.90787,286.16486z M339.84744,306.6579
				c0.39258,0.16956,0.78503,0.33908,1.17749,0.50861c-2.24036,5.16708-4.48071,10.33414-6.72107,15.50125
				c-0.27808-0.12115-0.55603-0.24234-0.83398-0.36349C335.59573,317.08881,337.72159,311.87338,339.84744,306.6579z
				 M396.71024,199.88515c9.81055-9.01863,20.88489-15.94614,34.23645-18.45683c2.55554-0.48059,5.21936-0.57506,7.82776-0.53127
				c2.54028,0.04266,3.21008,1.5793,1.95557,3.70407c-1.56592,2.65186-3.2511,5.23923-4.9939,7.7796
				c-6.29065,9.16998-10.97864,18.96965-12.05725,30.21121c-0.1637,1.70515-0.3999,3.42775-0.31506,5.12791
				c0.30432,6.09792-2.32471,10.30415-7.87366,12.75819c-14.45532,6.3931-29.29297,11.63383-44.95007,14.13126
				c-10.29016,1.64137-20.61218,1.88118-30.01221-3.58859c-4.12317-2.39919-7.75061-5.65033-11.60315-8.51463
				c0.19092-0.30917,0.38184-0.6183,0.57275-0.92743c11.11255,4.4287,22.14441,4.40703,33.09521-0.23688
				c-13.00537,1.418-24.65625-0.75865-32.9906-12.2691c1.16614,0.33965,2.36108,0.60284,3.49402,1.03044
				c15.37939,5.80423,29.01172,2.54869,40.90015-8.30608C381.76212,214.7063,388.96756,207.00284,396.71024,199.88515z
				 M329.64603,168.4666c-5.94324-2.87755-12.06958-5.37691-18.40869-8.17839c3.88135-5.40155,9.37134-7.29893,15.1792-7.96201
				c6.11108-0.69771,12.32874-0.40581,18.46826-0.92223c7.37756-0.62056,14.82666-1.13895,22.0437-2.65723
				c4.88794-1.02835,9.4292-3.70403,14.3512-5.73604c0.11768,0.89542,0.40723,2.28717,0.46875,3.68898
				c0.88,20.04657-1.95044,39.25143-13.47449,56.29033c-8.26184,12.21567-23.04468,20.31627-36.3053,19.92287
				c6.27051-6.98793,10.64307-14.45238,12.58191-23.24974C347.59561,185.84663,342.37576,174.62997,329.64603,168.4666z
				 M295.93753,111.1329c-6.13013-0.71507-11.37781-1.32721-17.09863-1.9945c2.13403-6.98521,7.92822-9.67181,15.22205-12.15289
				C291.11331,102.27872,292.03946,106.64651,295.93753,111.1329z M281.52615,122.10586
				c4.1073,1.50261,8.33411,3.04888,12.55359,4.59251c6.63147-10.59106,23.96411-7.0469,30.00659,1.28584
				c-10.11194,5.61391-19.83862,11.69617-24.82971,22.25316c-6.02014-4.87553-11.8894-9.55052-17.63464-14.37334
				c-0.78601-0.65974-1.39307-2.0836-1.32837-3.10583C280.51553,129.25752,281.07352,125.77815,281.52615,122.10586z
				 M336.51846,117.87562c-0.92749,3.13014-4.73499,5.40691-7.61523,8.45155c-4.20776-6.63228-9.83875-9.55848-16.62097-11.56535
				c6.76318-4.9894,15.83093-4.77264,21.11755-11.9853C336.11221,107.76723,337.9805,112.94125,336.51846,117.87562z
				 M334.47305,91.09475c6.25183,0.93053,11.01355,3.49849,14.80957,7.94482c1.23865,1.45084,1.4209,2.44005,0.11768,4.08314
				c-2.25183,2.83911-4.11646,5.98522-5.65881,8.28102c-2.62305-4.15929-5.66504-8.47678-8.11353-13.10798
				C334.60953,96.36969,334.85684,93.77444,334.47305,91.09475z M317.74075,98.13477c0.255-0.13868,0.51013-0.27732,0.76514-0.416
				c0.80554,1.05094,2.05371,2.02531,2.25354,3.18098c0.12329,0.71243-1.35242,1.70143-2.66687,3.20156
				C317.93155,101.37074,317.83621,99.75275,317.74075,98.13477z M326.30215,98.6265
				c-6.81445-10.05168-14.34619-10.30653-24.8125-0.82789c-0.10547-0.14765-0.33313-0.3712-0.29688-0.42879
				c3.76196-5.98238,13.64648-10.01241,20.37109-8.15537C327.58047,90.8759,329.86734,95.81006,326.30215,98.6265z
				 M303.58109,102.89124c0.27991,3.22063,0.51685,5.94759,0.75903,8.73479
				C300.20987,109.27901,300.08023,108.15628,303.58109,102.89124z M374.96646,100.22408
				c7.6665,1.05429,15.12134,3.64794,22.56836,5.96197c-7.61108,2.15385-14.20068,6.05442-17.28894,12.85602
				c-5.28149,11.63235-14.57434,15.60229-26.14111,16.64243c-7.37463,0.66315-14.75256,1.28894-22.12903,1.9315
				c-0.02063-0.12643-0.04126-0.25288-0.06201-0.37932c1.88098-0.76813,3.74524-1.58073,5.64587-2.2966
				c8.33447-3.13919,13.77612-9.09161,16.9021-17.30586c0.77014-2.02376,1.41882-4.09659,2.25403-6.09214
				C360.11209,103.42777,366.27286,99.02851,374.96646,100.22408z M264.24393,91.36591
				c2.77856-2.58871,6.33228-4.39043,9.66345-6.32919c3.93359-2.28934,8.23474-4.01579,11.93274-6.61719
				c2.43164-1.71061,4.36194-4.35207,6.02209-6.89908c4.35217-6.67729,9.19714-7.50561,15.25378-2.24068
				c1.0199,0.88652,1.88367,1.95255,3.17688,3.31111c1.2218-5.17494,4.12915-6.62629,8.44263-4.51645
				c1.42798,0.69839,2.79065,1.57545,4.07092,2.52257c6.95117,5.14255,14.40002,9.13075,22.97278,10.95338
				c4.32947,0.92047,8.14783,3.19363,10.71875,6.90117c3.90222,5.62724,2.76733,6.67365-2.1283,8.915
				c-4.25195-6.59108-9.78638-11.6236-17.75964-13.34817c-0.77734-0.16814-1.56616-0.3981-2.35034-0.40062
				c-5.34448-0.01714-10.55884-0.62568-15.84265-1.71014c-5.63269-1.15601-10.65564,1.52205-15.15283,4.9959
				c-1.08655,0.83934-2.53674,1.51975-3.88306,1.65839c-6.55969,0.67555-13.18591,1.63052-18.20435,6.12475
				c-3.47888,3.11547-6.16125,7.22589-8.77258,11.17403c-2.47778,3.74597-4.13525,4.31054-7.58899,1.54975
				C259.92935,103.50481,259.41006,95.86958,264.24393,91.36591z M271.78238,131.20471
				c-2.8291-0.77634-5.73706-1.37938-8.46973-2.43607c-0.88635-0.3427-1.74109-1.81789-1.87695-2.8698
				c-0.61011-4.7234-0.95618-9.48087-1.41772-14.44328C275.24075,115.04144,275.42422,122.57827,271.78238,131.20471z
				 M233.27078,115.60422c0.60229-4.31666,2.01428-8.59711,3.62366-12.67446c1.53223-3.88189,5.10645-5.23319,9.10681-5.58449
				c2.71277-0.23821,5.40979-0.6548,9.00989-1.1032c-0.43091,4.47198-0.93713,8.58579-1.19946,12.71511
				c-0.38757,6.1012-0.60181,12.21345-0.92786,19.12585c-3.94324-0.6367-8.58289-0.94515-12.94556-2.20917
				C235.18631,124.497,232.58292,120.53528,233.27078,115.60422z M241.31607,175.70564
				c-5.77136-12.60477-8.27051-26.88484-6.26355-35.61154C241.87552,151.4816,242.1481,163.50305,241.31607,175.70564z
				 M244.77139,144.86612c-0.73889-1.51852-1.44763-3.05177-2.34705-4.95148c7.76318,0.66667,13.68347,4.18724,18.43005,8.75343
				c1.98413-1.59538,3.65735-3.9274,5.68372-4.29105c2.00354-0.35954,4.76123,0.77026,6.47791,2.13809
				c2.82397,2.25015,5.3335,5.02385,7.52283,7.9192c9.47058,12.52484,21.36511,21.46004,36.69263,25.5135
				c0.55017,0.14548,1.08923,0.33411,1.6311,0.50972c11.3197,3.66797,15.91541,11.56183,13.55444,23.28011
				c-3.30383,16.39847-19.0592,27.08081-35.45459,23.44553c-16.52649-3.66432-30.41223-11.74992-39.64075-26.47206
				c-5.35217-8.53831-7.53186-18.06398-7.80322-28.04437C249.26016,163.16408,249.05679,153.67328,244.77139,144.86612z
				 M208.9816,199.43985c9.10962,2.98833,16.27954,9.12648,23.49646,15.09364c10.14551,8.38873,20.34106,16.76653,32.73499,21.62077
				c6.62048,2.59306,13.6217,4.2141,19.92114,6.11397c-2.0249,1.72301-4.4342,1.95343-14.63428,0.64911
				c6.14148,5.092,12.46448,5.71268,19.86462,3.45369c-4.63025,7.99423-11.21313,12.3923-19.32874,14.29553
				c-14.07935,3.30173-26.43091-0.78326-36.41931-10.77417c-5.93054-5.93199-10.73926-13.00681-15.88013-19.7001
				c-3.89465-5.07062-7.28516-10.53931-11.32007-15.48843c-4.88574-5.99272-10.9502-10.36559-19.77356-11.10098
				C194.43143,197.36795,201.51578,196.9908,208.9816,199.43985z"/>
		</g>
		<g>
			<path d="M302.38382,470.1366c-19.73755-22.16406-36.46167-34.97629-61.11719-44.04507
				c-11.6438-4.28278-24.30762-4.89062-36.50183-7.20334c-17.14966-3.25256-34.1051-7.21027-50.38751-14.82144
				c-19.37476-9.56647-32.80206-24.56403-43.02081-42.79965c-10.06903-17.96838-20.50452-35.68463-33.61603-51.69904
				c-5.86066-7.15826-9.43591-15.58453-12.24042-24.41425c-3.30579-10.40793-7.85114-20.30005-14.2323-29.24724
				c-10.45685-14.66185-16.3092-31.50124-23.04565-47.96767c-6.80792-16.64131-14.29156-32.99605-25.94629-47.01994
				c-3.77875-4.54691-2.84113-7.19766,2.73334-9.13446c7.56494-2.62836,14.42438,0.11258,20.98108,3.14258
				c12.27362,5.67192,22.34082,14.31801,30.97021,24.67737c0.41656,0.50006,1.05029,0.81909,1.57812,1.21881
				c1.47461-1.00082,0.88715-2.3252,0.6814-3.38345c-2.16827-11.15079-1.99268-22.42435-1.81592-33.69214
				c0.11957-7.62395,4.11694-10.49182,11.19989-7.72539c11.45459,4.47394,17.64111,13.83919,22.35742,24.61803
				c6.94482,15.87216,7.07605,32.58102,6.68671,49.41391c-0.06171,2.67046-0.82886,5.57529,2.18225,8.9532
				c-3.14227-7.43489-0.16406-13.33519,1.07532-19.33382c2.0932-10.13101,3.38544-20.50273,6.91516-30.24883
				c3.11206-8.59294,8.09229-9.34538,13.99719-2.2361c8.81744,10.61584,10.67157,22.88081,7.03241,36.01993
				c-1.06476,3.84422-2.41425,7.59093-2.12292,12.34875c0.48584-0.94896,0.67975-1.38205,0.9198-1.78783
				c1.88837-3.19229,3.10913-7.84125,8.01147-6.59253c4.7876,1.21951,7.75824,4.91022,8.76758,9.931
				c1.49768,7.45035-0.76801,14.49654-2.91888,21.35323c-1.34503,4.28784-0.7179,7.61272,1.32782,11.207
				c4.90912,8.62514,8.6438,17.60643,9.17346,27.75471c0.1745,3.34286-0.1756,6.47803-0.71985,10.07233
				c-5.23792-1.85861-7.34125-6.37579-10.05023-10.18701c-1.48907-2.09491-2.03503-5.00732-3.80444-6.73151
				c-9.05774-8.82608-11.44623-20.30714-12.77466-32.0323c-0.74908-6.61171,0.38251-13.52525-1.75482-19.92166
				c-1.98279-5.93398-0.6286-11.37131,0.35321-17.12921c1.58441-9.29164,1.75287-18.61345-2.78552-27.3727
				c-1.5575-3.00609-3.6651-5.35898-7.03784-6.62346c-2.95251,3.48334-3.15552,7.83725-4.11816,11.73398
				c-2.27002,9.18913-3.70972,18.58083-5.84467,27.80736c-0.89563,3.87056-0.30695,6.9993,1.80634,10.28708
				c5.79547,9.01649,12.30292,18.01003,14.66895,28.43315c2.56952,11.31953,7.37903,21.48619,12.08063,31.83211
				c0.96796,2.12997,1.42285,4.22128,0.32794,6.34088c-1.65753,0.75299-2.32013-0.34427-3.01593-1.3443
				c-10.0755-14.48029-19.474-29.35435-26.65088-45.5358c-2.47498-5.58012-6.13226-10.43884-9.97528-15.0979
				c-2.26984-2.75182-3.20178-5.59485-2.89941-9.06531c0.87396-10.03096,0.45874-20.03835,0.09229-30.10112
				c-0.48041-13.19023-5.94501-23.96213-13.58356-34.00064c-2.94727-3.87326-6.87549-6.65749-12.24243-7.55495
				c-1.96314,6.13783-0.1579,11.96725,0.8042,17.55313c1.72571,10.01881,4.28729,19.80588,3.69458,30.18709
				c-0.3197,5.59996,4.10992,10.14557,5.82385,15.35318c4.64874,14.12508,14.66687,25.26933,20.93378,38.4756
				c0.22229,0.46849,0.69305,0.8934,0.7312,1.36424c1.02826,12.69447,10.13483,20.79082,17.13159,30.06288
				c2.84943,3.77603,5.14392,7.62146,4.70227,12.49405c-2.04773,0.64664-2.88165-0.6315-3.87207-1.54495
				c-5.72681-5.28174-10.80707-11.24875-17.0144-16.02246c-4.09906-3.1524-4.90045-8.05713-5.60553-12.52597
				c-1.59937-10.1369-6.38336-18.64365-12.62238-26.3273c-7.25653-8.93666-10.26343-19.88123-15.28901-29.86664
				c-9.49274-18.86119-23.57727-33.17192-42.83667-42.03423c-4.18536-1.9259-8.85132-2.76883-14.30249-1.16022
				c3.65826,5.57399,6.94366,10.91293,10.55548,16.02092c10.93762,15.46838,19.65393,31.99788,25.34515,50.14752
				c3.64813,11.63417,10.20312,21.90752,16.64777,32.14044c8.3357,13.2356,14.45862,27.491,19.92896,42.05481
				c2.14136,5.70102,5.98053,10.18286,10.05762,14.34808c10.82159,11.0553,19.20764,23.76535,24.81177,38.01688
				c8.7522,22.25705,25.3385,36.56921,45.61554,47.47287c19.30676,10.38199,40.21997,14.88104,61.81812,17.69199
				c20.70996,2.69543,40.68787,8.23032,56.82654,22.83246c1.49829,1.35565,3.29041,2.38647,5.41663,3.90396
				c0.26953-5.78351,2.91626-10.82642,0.18591-16.17389c-0.7655-1.49927-0.54321-3.55832,1.41772-4.48535
				c1.66821-0.78873,1.64331,1.28598,2.26514,1.65155c9.62939-8.77356,8.62183-19.91638,6.47144-31.29102
				c4.29199-0.64395,5.73657,4.80896,9.84509,3.32999c0.33972-2.17108,1.78601-4.26895,0.51331-6.80267
				c-5.36523-10.68134-10.69019-21.4675-19.69226-29.62054c-11.2085-10.15152-24.91687-14.88425-39.5564-17.97067
				c-13.5282-2.85214-27.93018-3.90494-38.71936-14.41794c-1.21802-1.18683-2.90137-1.89493-3.19226-3.84232
				c1.25208-1.04803,2.41895-0.19226,3.37012,0.32156c12.50366,6.75403,26.2146,9.63718,39.96619,12.08691
				c24.47803,4.36053,43.68286,16.44998,57.24927,37.40155c2.41406,3.7283,3.59656,7.79517,4.20776,12.09097
				c0.22278,1.56625,0.21362,3.7435,2.23901,3.40588c5.03308-0.83896,10.20862,0.87854,15.10107-0.85754
				c5.33862-1.89447,8.03906,0.16953,7.08862,5.84586c-0.35315,2.10941-0.61072,4.11429,0.41028,6.07703
				c2.78369,5.35126,2.50354,10.99457,1.823,16.75272c-0.92102,7.79221-0.35706,15.37891,4.06372,22.30505
				c5.08362-8.50247,6.26038-9.70099,11.80603-11.88544c1.76697,4.16748-2.44409,6.87805-2.52856,10.98715
				c4.76794-1.37473,8.28613-4.73193,12.42712-6.8111c18.73657-9.40756,38.41931-14.849,59.25671-17.40967
				c23.41187-2.87711,44.95935-11.18878,64.77856-24.52264c16.73364-11.25793,27.17639-26.75757,34.69992-44.77393
				c4.94629-11.8443,12.26123-22.02121,21.06311-31.20898c6.56885-6.85696,11.12891-14.73328,14.23743-23.7832
				c4.50574-13.11789,11.66394-24.9696,18.76416-36.8792c7.23169-12.12985,13.51099-24.70987,17.86609-38.41696
				c5.09045-16.02037,14.43848-30.18361,24.07739-43.96432c2.76331-3.95052,5.53674-7.89381,8.6615-12.34775
				c-6.39453-2.1749-12.02649-0.61107-17.13977,2.05437c-20.96289,10.92758-35.69824,27.58803-43.87781,49.77237
				c-3.77612,10.24115-10.30981,18.70796-16.1886,27.63678c-4.03528,6.12888-6.62024,12.78632-7.90552,20.0853
				c-0.96362,5.47287-3.26343,10.29074-7.93347,14.12985c-6.06311,4.98428-11.41724,10.83176-17.60205,16.81625
				c-1.42587-4.82462-0.25427-8.26746,2.02539-11.34161c4.22083-5.69186,8.5658-11.29416,12.96558-16.8494
				c1.54041-1.94482,3.03308-4.02502,3.37939-6.36925c1.52039-10.29326,6.50134-18.8828,12.80469-26.81598
				c5.93445-7.4687,7.12207-17.30338,12.46838-24.93634c5.50171-7.85489,4.29932-16.76372,5.07898-25.33638
				c0.7395-8.12897,3.18384-15.89767,4.22546-23.93582c0.4834-3.72975,0.72949-7.46611-0.01233-11.6458
				c-6.63721,2.00066-11.02014,5.8145-14.68127,10.74753c-8.29285,11.17386-11.24402,23.9536-11.41956,37.56029
				c-0.09851,7.629-0.24719,15.27374,0.13281,22.88611c0.21265,4.25769-0.62366,7.63092-3.51367,10.88063
				c-8.53394,9.5959-12.74597,21.69785-18.47351,32.9117c-4.97839,9.74728-12.5206,17.81741-17.71713,27.41324
				c-0.43677,0.80634-1.18579,1.22726-2.31079,1.14496c-2.31531-1.49899-1.11292-3.44055-0.5531-5.40543
				c2.10217-7.37723,7.68408-13.36722,9.12903-20.81662c3.0343-15.6422,10.45602-29.11198,18.97018-42.19569
				c1.59509-2.45134,1.68774-5.39581,0.92249-8.07431c-3.23425-11.32121-4.45056-23.03951-6.96497-34.49992
				c-0.52454-2.39096-1.55896-4.12053-3.92761-5.66374c-7.07468,4.48016-9.0737,11.77831-9.84946,19.3194
				c-0.70667,6.86784-0.45667,13.85616,2.4082,20.40924c1.82324,4.17032-0.82092,7.74454-1.56079,11.55611
				c-0.66272,3.41418-1.35925,6.82364-0.99207,10.2877c0.92419,8.72-3.45679,16.95346-2.25769,25.68709
				c0.06543,0.47644-0.05176,1.16966-0.36401,1.47842c-9.18176,9.07837-12.69885,22.29288-22.5498,30.86722
				c-0.37146,0.3233-0.91125,0.45312-2.1073,1.02335c-0.8833-7.62936-1.01733-14.8511,1.30554-21.94901
				c2.15234-6.57651,4.77405-12.99474,8.63452-18.76274c1.87219-2.79739,1.80896-5.26135,0.65601-8.2468
				c-2.49561-6.4621-4.20898-13.10991-3.81189-20.16591c0.27307-4.85454,4.05518-10.55577,8.42542-12.17883
				c2.39832-0.89073,4.48987-0.29555,5.95386,1.8105c1.24023,1.78438,2.28516,3.70486,3.80908,6.21088
				c0.07471-4.47499-1.09473-8.03986-2.07812-11.59995c-3.08521-11.16899-2.31494-21.87454,3.63904-31.98024
				c1.04675-1.77675,2.24597-3.50578,3.61499-5.04272c4.97922-5.5901,10.1882-4.95113,13.08286,1.77707
				c3.29333,7.65482,3.99268,16.00333,5.86938,24.03778c1.31897,5.64787,2.55017,11.3163,4.10889,16.92975
				c0.32715-9.19054-0.29858-18.41273,1.50977-27.41498c3.37366-16.79448,7.99133-33.0181,23.32397-43.49843
				c2.39233-1.63528,4.97534-2.41629,7.65491-2.98532c4.60242-0.97726,7.21619,0.92508,8.14136,5.62283
				c2.08008,10.56117-0.39832,21.04684-0.56482,31.57097c-0.03723,2.36169-0.95032,4.72087,0.17102,7.43094
				c4.07922-3.88383,7.88733-7.74393,11.94421-11.32178c7.69202-6.78381,15.86548-12.82646,25.78723-16.10863
				c5.26685-1.74225,10.61597-1.66385,15.89465-0.75058c4.66943,0.80786,5.84949,5.108,2.4906,9.16605
				c-7.224,8.72792-12.66748,18.47485-17.74341,28.55168c-5.13855,10.20125-9.57556,20.64935-13.38452,31.39604
				c-4.59143,12.95406-11.06714,24.94498-18.87268,36.22063c-5.96497,8.6167-10.10791,18.15546-13.2312,28.01801
				c-4.1687,13.16397-11.56165,24.26425-20.08484,34.80527c-11.93127,14.75613-19.96509,31.93652-29.83679,47.97324
				c-13.50131,21.93298-32.82211,35.92111-57.42148,43.29205c-19.57642,5.86591-39.69507,8.8439-59.67896,12.62775
				c-19.89294,3.76666-36.60022,13.92398-51.97473,26.60065c-0.7926,0.6535-1.59424,1.39474-2.11768,2.26089
				c-5.20862,8.61963-10.65674,16.29807-20.71826,19.02798c-4.5415,1.23221-4.24866,2.73434-9.745,3.91846 M300.49112,448.77795
				c1.35913,4.3797,3.71191,8.19693,6.87793,11.45724c1.55957,1.60614,2.87817,4.42578,5.90747,2.72485
				c2.82166-1.58432,2.95178-4.68872,1.90356-6.90674c-3.66455-7.7543-0.79382-14.97119,1.36841-22.16293
				c1.50269-4.99786,0.11597-8.65164-3.35767-12.04971c-1.57104-1.5369-3.71387-2.64838-4.17688-5.11963
				c-1.21692-6.49332-7.61877-9.71112-9.88086-15.55762c-0.04944-0.12778-0.63696-0.04724-1.39258-0.08456
				c2.60193,8.91974-1.03479,16.22662-5.90601,23.16959c-2.14307,3.05441-2.43604,5.83795,0.18005,8.89737
				C295.75284,437.51761,297.95633,442.81683,300.49112,448.77795z M328.81802,396.52307
				c-0.8418-1.95139,0.75745-4.08987-0.51672-6.26202c-1.43933,0.44452-2.85815,1.21429-4.30383,1.26852
				c-4.79297,0.17996-5.46411,2.59412-4.07312,6.57538c0.84912,2.43045,1.85913,4.95917,1.08679,7.582
				c-1.33093,4.52042-0.48645,8.814,0.63184,13.2366c1.104,4.36649,1.57483,8.83838-1.27051,12.95859
				c-0.72034,1.04318-1.65186,2.33572-0.39404,4.12543c4.57556-2.6163,10.20068-4.71893,10.50806-10.78403
				C330.95779,415.91888,333.78177,406.35739,328.81802,396.52307z M322.19424,439.91788
				c-4.04553,3.03671-6.2085,6.95377-5.09119,12.0777c1.00916,4.62793,2.51111,9.19604-2.13513,13.68213
				c15.31128-1.44794,24.04297-19.87857,17.22461-35.10513C330.4772,435.50946,325.6796,436.32468,322.19424,439.91788z
				 M135.09567,213.89066c-4.82648,1.21338-5.12823,5.38432-5.07361,9.00021c0.10944,7.23445,1.09338,14.4516,1.37787,21.68918
				c0.16327,4.15375,0.10138,8.10512,2.50452,11.88593c4.97986,7.83469,9.58466,15.90793,14.34369,23.88309
				c-1.7121-10.7774-5.16656-20.89511-11.09894-29.86169c-3.17432-4.79796-3.09015-8.52948-0.85883-13.79219
				C139.35178,229.47462,141.11783,221.52353,135.09567,213.89066z M487.90213,258.0737
				c-2.53638,6.16025-5.17725,12.28964-5.88501,19.02448c2.70813-3.28247,5.12219-6.64236,7.18677-10.2049
				c3.18945-5.50394,8.17041-10.94742,8.74109-16.77434c0.98364-10.04272,1.97961-20.2682,1.47485-30.45323
				c-0.146-2.94521-1.1687-5.71722-4.62219-6.92433c-5.11621,5.1765-5.53113,11.80463-3.02502,17.32417
				c4.17883,9.20375,4.37451,17.23015-2.11792,25.1422C489.1116,255.86957,488.71927,256.65512,487.90213,258.0737z
				 M314.14883,405.97003c1.05212,2.01282,2.10413,4.02563,3.0238,5.78519c4.18018-7.27756-2.28198-14.09952-0.48022-21.07263
				c-5.94202-1.58224-7.32397,3.57886-8.96118,6.48376c-1.52014,2.69739,2.42053,4.76486,4.65234,6.6131
				C312.9097,404.21515,313.31668,404.79477,314.14883,405.97003z M299.17911,459.45514
				c3.64478,6.25488,3.76794,6.3385,8.64453,5.71204c-7.88281-6.0304-10.43945-15.33487-14.90674-23.45148
				C294.01907,447.74866,294.05582,454.09811,299.17911,459.45514z M343.15579,439.14926
				c0.08179-0.66525,0.16345-1.33047,0.24524-1.9957c-0.25537-0.09076-0.51062-0.18149-0.76599-0.27222
				c-2.479,6.15546-4.95801,12.31088-7.43701,18.46634C340.25418,451.31274,342.3378,445.89954,343.15579,439.14926z
				 M306.89896,406.01718c2.73254,1.30136,4.12061,3.40939,4.12146,6.49313c0.00098,3.11752,1.90723,4.72537,5.0553,6.04239
				c-0.73499-4.93951-2.92456-8.49545-5.64648-11.78018C309.42044,405.55518,308.27652,404.45566,306.89896,406.01718z"/>
			<path d="M510.0419,311.651c-4.78247,8.479-12.94519,12.38669-20.47083,16.71136
				c-8.49512,4.88181-16.3855,10.26495-22.74561,17.75964c-12.84558,15.13708-30.33533,20.16632-49.04932,22.50577
				c-0.29077,0.03635-0.62061-0.23828-1.38489-0.55594c5.05139-3.55731,10.92456-4.25131,16.25439-5.90961
				c11.60791-3.61166,21.46277-9.66681,29.10144-18.94907c7.9043-9.60513,17.95129-16.07693,28.76917-21.6936
				c7.41101-3.84775,13.2157-9.35052,16.77515-17.04364c2.5083-5.42163,0.90295-9.76208-4.63782-12.17673
				c-3.06873-1.33731-6.24561-2.02142-9.61523-1.2688c-15.71362,3.50983-29.14209,11.61441-41.64673,21.28641
				c-9.9624,7.70572-18.68066,16.96268-29.13135,24.08173c-3.04053,2.07117-6.28918,4.03079-10.69312,4.85092
				c0.51306-1.29742,0.57568-2.10251,1.0072-2.45349c14.19543-11.54489,25.08118-26.94769,41.36426-36.01184
				c11.12659-6.19376,22.04285-12.98373,34.91699-15.29813c8.03906-1.44513,15.45142-0.9411,21.71069,5.1799
				c3.10654,3.03802,4.15439,6.43384,2.41086,10.32147C511.7637,305.69293,512.12476,308.86182,510.0419,311.651z"/>
			<path d="M139.16769,322.24353c13.5307,6.78372,24.28937,16.31467,34.05035,27.289
				c6.97485,7.8418,16.70032,11.38608,26.48303,14.46094c5.52112,1.73541,11.0625,3.40604,16.59485,5.10587
				c-0.10522,0.45459-0.21045,0.90921-0.31567,1.3638c-6.40955-1.1825-12.87231-2.13327-19.21814-3.59317
				c-15.77893-3.6301-28.22058-12.40494-38.54065-24.78052c-4.90521-5.88223-11.90692-9.34531-18.53607-13.13
				c-5.69507-3.2515-11.41833-6.49985-16.18262-11.18204c-5.50586-5.41098-7.05292-12.20764-6.64313-19.43042
				c0.3269-5.76285,8.51868-10.53522,16.67407-10.35165c9.89166,0.22263,18.75262,3.66495,27.64783,7.80853
				c17.07898,7.95587,31.45374,19.19797,44.0625,33.03802c4.00708,4.39832,8.75195,8.12399,12.84424,12.61746
				c-6.66516-0.61011-11.65503-4.39014-16.46716-8.43378c-15.33337-12.88489-29.80396-26.89011-48.37531-35.41544
				c-7.71124-3.53989-15.52063-5.69431-24.01184-4.82605c-6.51178,0.66589-9.66718,6.56314-6.83514,12.60052
				C125.91574,312.88202,131.40305,318.42908,139.16769,322.24353z"/>
			<path d="M345.71194,356.78912c-8.7179,6.26282-16.26147,20.90323-20.21362,31.61465
				c-6.19092,2.2709-0.55164-14.00372,0.87939-16.53513c6.78467-12.00183,16.21191-21.45178,28.23499-28.22113
				c9.58984-5.39944,20.12195-7.79092,30.79138-10.15378c12.23511-2.70966,24.78882-4.72427,36.02002-10.9191
				c1.19507-0.65918,2.57019-1.01166,3.89014-1.41324c0.43823-0.1333,0.96545,0.0256,2.32874,0.0965
				c-6.41272,5.95929-12.35071,11.08286-20.45642,13.29544c-12.47473,3.40515-25.35046,5.06964-37.68872,9.0799
				C360.79947,346.46039,353.48502,351.6091,345.71194,356.78912z"/>
		</g>
		<path d="M293.20145,474.68649c0.95618,7.89828,5.27698,12.75275,10.25964,17.32492
			c4.23572,3.88675,8.15442,8.11884,11.70886,11.69113c2.89771-3.05969,6.27344-6.97089,10.01538-10.49289
			c5.38379-5.06735,10.72253-10.04529,11.17017-18.16312c2.00696,6.30826,1.64062,12.51416-1.37085,18.23123
			c-2.26526,4.30032-5.2821,8.22223-8.13013,12.19373c-4.08057,5.69009-8.31201,11.27191-12.46265,16.87787
			c-2.47144-8.46344-9.78381-14.46884-15.38525-21.72214c-4.81555-6.23575-7.60022-13.22818-6.85327-21.30246
			c0.07361-0.7944,0.14087-1.59363,0.29163-2.37509C292.55045,476.40311,292.79337,475.88303,293.20145,474.68649z"/>
	</g>
	<g>
		<path d="M219.58658,2.26764c-34.52026,22.91588-60.95886,52.77473-77.39673,91.04539
			c-16.39984,38.18224-19.81049,77.87222-12.91949,118.66299C105.26541,129.37825,143.66116,42.2117,219.58658,2.26764z"/>
		<path d="M408.01236,0.82678c83.92554,45.22309,113.51144,133.4026,92.96313,208.58704
			C512.08435,121.0911,482.13834,51.10781,408.01236,0.82678z"/>
		<path d="M446.0126,0c16.66162,10.94466,31.50598,23.91943,43.88586,39.55619
			c17.52661,22.13728,28.68149,47.4134,36.07529,74.48872c-7.58289-22.46658-17.71603-43.64671-31.4028-63.08622
			C480.90982,31.55558,464.71841,14.60061,446.0126,0z"/>
		<path d="M103.66788,112.16425c12.39893-46.13253,37.02435-83.77135,77.06311-110.70281
			C144.47195,31.0186,118.48257,67.70995,103.66788,112.16425z"/>
	</g>
</g>
</svg>
