<?xml version="1.0" encoding="utf-8"?>
<!-- Generator: Adobe Illustrator 25.4.1, SVG Export Plug-In . SVG Version: 6.00 Build 0)  -->
<svg version="1.1" id="Layer_1" xmlns="http://www.w3.org/2000/svg" xmlns:xlink="http://www.w3.org/1999/xlink" x="0px" y="0px"
	 viewBox="0 0 3067.20166 522.34937" style="enable-background:new 0 0 3067.20166 522.34937;" xml:space="preserve">
<g>
	<g>
		<g>
			<path d="M191.9874,213.58914c5.84186,2.52327,9.51294,7.18117,12.40205,12.73824
				c3.8372,7.3808,7.46349,14.96695,12.16324,21.78761c23.58786,34.23254,69.2903,26.99985,86.6223-0.03319
				c1.94485-3.03349,3.85471-6.08954,5.6134-8.87045v49.18193c-3.76257-2.10144-7.69852-4.9223-12.07251-6.604
				c-7.49124-2.88016-15.74908-3.84744-22.54688-10.21765c1.15823,10.60977,3.79834,19.5777,10.26678,27.02655
				c7.53836,8.68088,17.28528,11.91464,28.63278,10.81628c4.95218,21.26733,6.74698,42.29852,2.86017,64.31558
				c-4.47385-6.8187-10.05774-11.29385-16.58548-14.6261c8.39017,10.78647,13.78641,23.32065,12.40997,29.51648
				c2.84573-0.15652,5.70154-0.15598,8.5289-0.46747c0.21802-1.08273,0.33047-1.72568,0.49292-2.35522
				c3.49548-13.54477,5.87018-27.26556,6.01486-41.28259c0.02637-2.5549,0.60388-4.00977,2.89136-5.4115
				c21.15613-12.96457,19.45578-38.1153,11.96164-51.00043c-2.73499,11.05652-13.53589,15.60464-19.02509,25.32672
				c-5.74805-25.85803-7.98773-51.11105-7.02679-76.72401c3.63052,6.91086,7.97852,13.12471,13.91309,18.11758
				c14.06995,11.8373,30.54672,13.44725,47.879,11.05421c18.56229-2.5629,34.63046-11.04349,50.01169-21.21553
				c7.16031-4.73531,10.58963-11.06796,8.99252-19.51352c-2.00577-10.60603,1.45877-19.55627,7.41617-27.95499
				c1.98383-2.79674,4.05182-5.55569,5.77106-8.51233c1.88507-3.24182,3.69833-6.58357,5.02261-10.07887
				c1.68256-4.44113,0.74832-6.30441-3.61096-8.36899c-6.1514-2.91339-12.72009-3.54468-19.41519-3.13635
				c-15.86127,0.96738-29.55798,7.29459-41.85468,17.03819c-0.80676,0.63925-1.58414,1.3156-2.38913,1.95711
				c-0.69998,0.55788-1.41971,1.09088-2.72556,2.09003c6.67059-17.55284,7.71344-34.73642,3.77795-52.26169
				c-0.26331-1.17264-0.29568-2.56895,0.08655-3.68198c1.0733-3.12561,2.34354-6.19096,3.67471-9.21913
				c2.57703-5.86227,7.05496-9.61469,13.36151-10.57837c3.47644-0.53117,7.10071-0.09509,11.01227-0.09509
				c-3.21707-5.60942-7.91284-8.99416-12.99258-11.88232c-12.12183-6.89212-24.88657-10.78419-39.00833-7.61457
				c-1.91571-7.21977-6.38699-12.07833-12.57288-15.38978c-9.64844-5.16492-19.36786-10.19778-29.07538-15.2516
				c-4.37-2.27501-8.88843-3.47012-13.8718-2.06374c-1.03802,0.29295-2.50128-0.05423-3.49158-0.60468
				c-5.02069-2.79084-9.75156-2.08201-14.09937,1.21342c-2.15881,1.6363-4.13312,3.66756-5.73758,5.85296
				c-3.5766,4.87159-8.24741,8.05303-13.71777,10.45482c-3.52444,1.54745-7.27777,3.24615-9.97607,5.86021
				c-5.31369,5.14782-11.46974,6.38844-18.47649,6.51233c-3.74702,0.06622-7.99968,0.70673-11.10703,2.59629
				c-11.79715,7.17371-15.42967,25.38417-7.98698,36.92928c0.6994,1.08493,1.07281,2.79733,0.78871,4.0323
				c-2.06731,8.98587-1.84387,17.92949,0.13499,26.86288c3.50079,15.80394,11.21992,29.58797,20.54593,42.58949
				c0.74509,1.03879,1.49481,2.07426,2.53871,3.52225c-1.2869,0-1.85344-0.00327-2.41989,0.0005
				c-8.81018,0.05859-16.28929-3.80959-23.82117-7.77638c-4.71724-2.48442-9.60794-4.93948-14.71431-6.32993
				c-16.48465-4.48888-32.71938,7.77449-33.19568,24.89641C179.51587,211.58739,185.51266,210.79251,191.9874,213.58914z
				 M304.4169,301.80975c-5.75385-3.47275-11.50769-6.94553-17.26147-10.41827c0.16855-0.28415,0.33716-0.5683,0.50577-0.85245
				c5.79572,3.45694,11.5914,6.91388,17.38718,10.37082C304.83783,301.20984,304.62738,301.5098,304.4169,301.80975z
				 M283.9079,286.16486c5.51086,0.2941,20.78845,8.76334,23.9935,12.99295
				C300.21466,294.9953,292.11414,290.60873,283.9079,286.16486z M339.8475,306.6579
				c0.39249,0.16956,0.78497,0.33908,1.17743,0.50861c-2.24036,5.16708-4.48068,10.33414-6.72107,15.50125
				c-0.27802-0.12115-0.55603-0.24234-0.83401-0.36349C335.59573,317.08881,337.72162,311.87338,339.8475,306.6579z
				 M396.71021,199.88515c9.81055-9.01863,20.88492-15.94614,34.23648-18.45683c2.5556-0.48059,5.21933-0.57506,7.82779-0.53127
				c2.54022,0.04266,3.21008,1.5793,1.95551,3.70407c-1.56586,2.65186-3.25107,5.23923-4.9938,7.7796
				c-6.29071,9.16998-10.97873,18.96965-12.05731,30.21121c-0.16364,1.70515-0.3999,3.42775-0.31506,5.12791
				c0.30432,6.09792-2.32471,10.30415-7.87363,12.75819c-14.45538,6.3931-29.29303,11.63383-44.9501,14.13126
				c-10.29013,1.64137-20.61215,1.88118-30.01215-3.58859c-4.1232-2.39919-7.75064-5.65033-11.60321-8.51463
				c0.19092-0.30917,0.38187-0.6183,0.57278-0.92743c11.11249,4.4287,22.14441,4.40703,33.09515-0.23688
				c-13.00528,1.418-24.65625-0.75865-32.99054-12.2691c1.16617,0.33965,2.36111,0.60284,3.49405,1.03044
				c15.3793,5.80423,29.01163,2.54869,40.90012-8.30608C381.76218,214.7063,388.96753,207.00284,396.71021,199.88515z
				 M329.64606,168.4666c-5.94324-2.87755-12.06958-5.37691-18.40875-8.17839c3.88138-5.40155,9.3714-7.29893,15.17923-7.96201
				c6.11105-0.69771,12.3288-0.40581,18.46832-0.92223c7.37753-0.62056,14.8266-1.13895,22.04364-2.65723
				c4.88791-1.02835,9.4292-3.70403,14.35117-5.73604c0.11768,0.89542,0.40729,2.28717,0.46881,3.68898
				c0.87994,20.04657-1.95047,39.25143-13.47446,56.29033c-8.26187,12.21567-23.04477,20.31627-36.30539,19.92287
				c6.27057-6.98793,10.64307-14.45238,12.58197-23.24974C347.59564,185.84663,342.37579,174.62997,329.64606,168.4666z
				 M295.93753,111.1329c-6.13016-0.71507-11.37778-1.32721-17.0986-1.9945c2.13406-6.98521,7.92816-9.67181,15.22198-12.15289
				C291.11331,102.27872,292.03949,106.64651,295.93753,111.1329z M281.52612,122.10586
				c4.10736,1.50261,8.33414,3.04888,12.55368,4.59251c6.63141-10.59106,23.96405-7.0469,30.00653,1.28584
				c-10.11191,5.6139-19.83859,11.69616-24.82965,22.25315c-6.02014-4.87553-11.88947-9.55052-17.63474-14.37334
				c-0.78598-0.65974-1.39301-2.0836-1.32828-3.10583C280.5155,129.25752,281.07355,125.77815,281.52612,122.10586z
				 M336.51843,117.87562c-0.92749,3.13014-4.73489,5.40691-7.6152,8.45155c-4.2077-6.63228-9.83878-9.55848-16.621-11.56535
				c6.76324-4.9894,15.83096-4.77264,21.11752-11.9853C336.11224,107.76723,337.98053,112.94125,336.51843,117.87562z
				 M334.47305,91.09475c6.25189,0.93053,11.01358,3.49849,14.80957,7.94482c1.23865,1.45084,1.4209,2.44005,0.11768,4.08314
				c-2.2518,2.83911-4.11646,5.98522-5.65884,8.28102c-2.62302-4.15929-5.66495-8.47678-8.11353-13.10798
				C334.60959,96.36969,334.8569,93.77444,334.47305,91.09475z M317.74081,98.13477c0.255-0.13868,0.51007-0.27732,0.76511-0.416
				c0.80554,1.05094,2.05371,2.02531,2.25357,3.18098c0.1232,0.71243-1.35242,1.70143-2.66687,3.20156
				C317.93161,101.37074,317.83624,99.75275,317.74081,98.13477z M326.30222,98.6265
				c-6.81458-10.05168-14.34628-10.30653-24.8125-0.82789c-0.10556-0.14765-0.33316-0.3712-0.29697-0.42879
				c3.76202-5.98238,13.64658-10.01241,20.37119-8.15537C327.58054,90.8759,329.8674,95.81006,326.30222,98.6265z
				 M303.58105,102.89124c0.27991,3.22063,0.51688,5.94759,0.75909,8.73479
				C300.20987,109.27901,300.08029,108.15628,303.58105,102.89124z M374.96649,100.22408
				c7.66644,1.05429,15.12128,3.64794,22.56836,5.96197c-7.61115,2.15385-14.20071,6.05442-17.28891,12.85602
				c-5.28152,11.63236-14.5744,15.6023-26.14117,16.64243c-7.3746,0.66315-14.75259,1.28894-22.12903,1.9315
				c-0.02066-0.12643-0.04129-0.25288-0.06195-0.37932c1.88098-0.76813,3.74518-1.58073,5.64581-2.2966
				c8.33444-3.13919,13.77609-9.09161,16.90207-17.30586c0.77014-2.02376,1.41882-4.09659,2.25409-6.09214
				C360.11215,103.42777,366.27289,99.02851,374.96649,100.22408z M264.24399,91.36591
				c2.7785-2.58871,6.33218-4.39043,9.66339-6.32919c3.93362-2.28934,8.2348-4.01579,11.93277-6.61719
				c2.43167-1.71061,4.36191-4.35207,6.02206-6.89908c4.3522-6.67729,9.19717-7.50561,15.25381-2.24068
				c1.01984,0.88652,1.88361,1.95255,3.17691,3.31111c1.22174-5.17494,4.12909-6.62629,8.44263-4.51645
				c1.42789,0.69839,2.79059,1.57545,4.07086,2.52257c6.95117,5.14255,14.40002,9.13075,22.97284,10.95338
				c4.32947,0.92047,8.1478,3.19363,10.71872,6.90117c3.90216,5.62724,2.76727,6.67365-2.12836,8.915
				c-4.25195-6.59108-9.78635-11.6236-17.75955-13.34817c-0.77734-0.16814-1.56625-0.3981-2.35043-0.40062
				c-5.34448-0.01714-10.55881-0.62568-15.84265-1.71014c-5.63266-1.15601-10.65558,1.52205-15.15274,4.9959
				c-1.08661,0.83934-2.53683,1.51975-3.88312,1.65839c-6.55972,0.67555-13.18585,1.63052-18.20438,6.12475
				c-3.47882,3.11547-6.16119,7.22589-8.77258,11.17403c-2.47769,3.74597-4.13525,4.31054-7.5889,1.54975
				C259.92941,103.50481,259.41006,95.86958,264.24399,91.36591z M271.78241,131.20471
				c-2.82916-0.77634-5.73712-1.37938-8.4697-2.43607c-0.88638-0.3427-1.74112-1.81789-1.87701-2.8698
				c-0.61011-4.7234-0.95621-9.48087-1.41776-14.44328C275.24075,115.04144,275.42422,122.57827,271.78241,131.20471z
				 M233.27084,115.60422c0.60225-4.31666,2.01425-8.59711,3.62355-12.67446c1.53224-3.88189,5.10655-5.23319,9.1069-5.58449
				c2.71272-0.23821,5.40981-0.6548,9.00989-1.1032c-0.43097,4.47198-0.93715,8.58579-1.19946,12.71511
				c-0.38763,6.1012-0.60188,12.21345-0.92793,19.12585c-3.94325-0.6367-8.58278-0.94515-12.94547-2.20917
				C235.18631,124.497,232.5829,120.53528,233.27084,115.60422z M241.31604,175.70564
				c-5.77132-12.60477-8.27049-26.88484-6.26355-35.61154C241.8755,151.4816,242.14809,163.50305,241.31604,175.70564z
				 M244.77145,144.86612c-0.73892-1.51852-1.44766-3.05177-2.34709-4.95148c7.76317,0.66667,13.68352,4.18724,18.43007,8.75343
				c1.98413-1.59538,3.65732-3.9274,5.68372-4.29105c2.00354-0.35954,4.7612,0.77026,6.47784,2.13809
				c2.82397,2.25015,5.33356,5.02385,7.52286,7.9192c9.47061,12.52484,21.36517,21.46004,36.69263,25.5135
				c0.55014,0.14548,1.0892,0.33411,1.6311,0.50972c11.31967,3.66797,15.91541,11.56183,13.55447,23.28011
				c-3.3038,16.39847-19.05917,27.08081-35.45459,23.44553c-16.52646-3.66432-30.41229-11.74992-39.64078-26.47206
				c-5.35222-8.53831-7.53188-18.06398-7.80321-28.04437C249.26015,163.16408,249.05681,153.67328,244.77145,144.86612z
				 M208.98163,199.43985c9.10962,2.98833,16.27957,9.12648,23.49641,15.09364c10.14551,8.38873,20.34108,16.76653,32.735,21.62077
				c6.62054,2.59306,13.6217,4.2141,19.92114,6.11397c-2.02487,1.72301-4.43414,1.95343-14.63428,0.64911
				c6.14151,5.092,12.46454,5.71268,19.86459,3.45369c-4.63022,7.99423-11.21307,12.3923-19.32867,14.29553
				c-14.07938,3.30173-26.43089-0.78326-36.41933-10.77417c-5.93057-5.93199-10.73926-13.00681-15.88017-19.7001
				c-3.89458-5.07062-7.28516-10.53931-11.32005-15.48843c-4.88567-5.99272-10.95015-10.36559-19.77353-11.10098
				C194.43143,197.36795,201.51579,196.9908,208.98163,199.43985z"/>
		</g>
		<g>
			<path d="M302.38379,470.1366c-19.73755-22.16406-36.46161-34.97629-61.11714-44.04507
				c-11.64378-4.28278-24.30757-4.89062-36.50186-7.20334c-17.1496-3.25256-34.10509-7.21027-50.38745-14.82144
				c-19.37482-9.56647-32.80208-24.56403-43.02087-42.79965c-10.069-17.96838-20.50449-35.68463-33.61599-51.69904
				c-5.86067-7.15826-9.4359-15.58453-12.24044-24.41425c-3.3058-10.40793-7.85115-20.30005-14.23228-29.24724
				c-10.45684-14.66185-16.30922-31.50124-23.04564-47.96767c-6.80797-16.64131-14.29158-32.99605-25.9463-47.01994
				c-3.77879-4.54691-2.84116-7.19766,2.7333-9.13446c7.56496-2.62836,14.42439,0.11258,20.98111,3.14258
				c12.27362,5.67192,22.34081,14.31801,30.9702,24.67737c0.41656,0.50006,1.0503,0.81909,1.57813,1.21881
				c1.47462-1.00082,0.88715-2.3252,0.68139-3.38345c-2.16825-11.15079-1.99265-22.42435-1.81589-33.69214
				c0.11956-7.62395,4.11694-10.49182,11.19989-7.72539c11.45458,4.47394,17.64112,13.83919,22.35738,24.61803
				c6.94484,15.87216,7.0761,32.58102,6.68676,49.41391c-0.06177,2.67046-0.82891,5.57529,2.18221,8.9532
				c-3.14224-7.43489-0.16405-13.33519,1.07534-19.33382c2.09319-10.13101,3.38541-20.50273,6.91512-30.24883
				c3.11205-8.59294,8.09229-9.34538,13.99722-2.2361c8.81742,10.61584,10.67158,22.88081,7.03242,36.01993
				c-1.06476,3.84422-2.41428,7.59093-2.12296,12.34875c0.48587-0.94896,0.67976-1.38205,0.91982-1.78783
				c1.88837-3.19229,3.10917-7.84125,8.0115-6.59253c4.78757,1.21951,7.75824,4.91022,8.76753,9.931
				c1.49773,7.45035-0.76796,14.49654-2.91882,21.35323c-1.34508,4.28784-0.71794,7.61272,1.32777,11.207
				c4.9091,8.62514,8.64381,17.60643,9.17351,27.75471c0.17445,3.34286-0.17563,6.47803-0.71989,10.07233
				c-5.2379-1.85861-7.34122-6.37579-10.05019-10.18701c-1.48907-2.09491-2.03508-5.00732-3.80449-6.73151
				c-9.05772-8.82608-11.4462-20.30714-12.77464-32.0323c-0.7491-6.61171,0.3825-13.52525-1.7548-19.92166
				c-1.98279-5.93398-0.62864-11.37131,0.35322-17.12921c1.5844-9.29164,1.75284-18.61345-2.78555-27.3727
				c-1.55753-3.00609-3.66508-5.35898-7.03786-6.62346c-2.95249,3.48334-3.15549,7.83725-4.11813,11.73398
				c-2.27002,9.18913-3.70971,18.58083-5.84469,27.80736c-0.89561,3.87056-0.30692,6.9993,1.80634,10.28708
				c5.79546,9.01649,12.30291,18.01003,14.66895,28.43315c2.56951,11.31953,7.37903,21.48619,12.08061,31.83211
				c0.96796,2.12997,1.42285,4.22128,0.32796,6.34088c-1.6575,0.75299-2.3201-0.34427-3.01593-1.3443
				c-10.07549-14.48029-19.47401-29.35435-26.65089-45.5358c-2.47493-5.58012-6.13223-10.43884-9.97527-15.0979
				c-2.26984-2.75182-3.20176-5.59485-2.89941-9.06531c0.87395-10.03096,0.45876-20.03835,0.09226-30.10112
				c-0.48042-13.19023-5.94501-23.96213-13.58354-34.00064c-2.94725-3.87326-6.8755-6.65749-12.24246-7.55495
				c-1.96308,6.13783-0.15787,11.96725,0.80426,17.55313c1.72566,10.01881,4.28724,19.80588,3.69456,30.18709
				c-0.31972,5.59996,4.10991,10.14557,5.82381,15.35318c4.64876,14.12508,14.6669,25.26933,20.93378,38.4756
				c0.22234,0.46849,0.69305,0.8934,0.73119,1.36424c1.02825,12.69447,10.13488,20.79082,17.13161,30.06288
				c2.84942,3.77603,5.14393,7.62146,4.70229,12.49405c-2.04774,0.64664-2.88166-0.6315-3.87211-1.54495
				c-5.72677-5.28174-10.80706-11.24875-17.01439-16.02246c-4.09906-3.1524-4.90043-8.05713-5.6055-12.52597
				c-1.59936-10.1369-6.38338-18.64365-12.62241-26.3273c-7.25652-8.93666-10.2634-19.88123-15.289-29.86664
				c-9.49271-18.86119-23.57724-33.17192-42.83667-42.03423c-4.18533-1.9259-8.85131-2.76883-14.30245-1.16022
				c3.65822,5.57399,6.94365,10.91293,10.55549,16.02092c10.93761,15.46838,19.65393,31.99788,25.3451,50.14752
				c3.64814,11.63417,10.20317,21.90752,16.64777,32.14044c8.33569,13.2356,14.45862,27.491,19.92896,42.05481
				c2.14139,5.70102,5.98052,10.18286,10.05764,14.34808c10.82159,11.0553,19.20764,23.76535,24.81178,38.01688
				c8.7522,22.25705,25.33849,36.56921,45.61549,47.47287c19.30678,10.38199,40.22005,14.88104,61.81812,17.69199
				c20.71001,2.69543,40.68788,8.23032,56.82661,22.83246c1.49829,1.35565,3.29037,2.38647,5.41663,3.90396
				c0.26953-5.78351,2.9162-10.82642,0.18588-16.17389c-0.76547-1.49927-0.54321-3.55832,1.41766-4.48535
				c1.66824-0.78873,1.64334,1.28598,2.2652,1.65155c9.62943-8.77356,8.62177-19.91638,6.47141-31.29102
				c4.29199-0.64395,5.73654,4.80896,9.84506,3.32999c0.33978-2.17108,1.7861-4.26895,0.51337-6.80267
				c-5.36523-10.68134-10.69025-21.4675-19.69226-29.62054c-11.20847-10.15152-24.91687-14.88425-39.55641-17.97067
				c-13.52818-2.85214-27.93021-3.90494-38.71941-14.41794c-1.21797-1.18683-2.90135-1.89493-3.19223-3.84232
				c1.25215-1.04803,2.41898-0.19226,3.37018,0.32156c12.50366,6.75403,26.21458,9.63718,39.96619,12.08691
				c24.47794,4.36053,43.68286,16.44998,57.24918,37.40155c2.41412,3.7283,3.59662,7.79517,4.20779,12.09097
				c0.22281,1.56625,0.21365,3.7435,2.23901,3.40588c5.03311-0.83896,10.20868,0.87854,15.10107-0.85754
				c5.33868-1.89447,8.03903,0.16953,7.08862,5.84586c-0.35318,2.10941-0.61075,4.11429,0.41025,6.07703
				c2.78372,5.35126,2.50357,10.99457,1.823,16.75272c-0.92096,7.79221-0.35703,15.37891,4.06378,22.30505
				c5.08356-8.50247,6.26031-9.70099,11.80603-11.88544c1.76697,4.16748-2.44415,6.87805-2.52863,10.98715
				c4.76804-1.37473,8.28613-4.73193,12.42712-6.8111c18.73663-9.40756,38.41934-14.849,59.25677-17.40967
				c23.41183-2.87711,44.95929-11.18878,64.7785-24.52264c16.73364-11.25793,27.17645-26.75757,34.70007-44.77393
				c4.94617-11.8443,12.26111-22.02121,21.06305-31.20898c6.56885-6.85696,11.12891-14.73328,14.23737-23.7832
				c4.50586-13.11789,11.66394-24.9696,18.76428-36.8792c7.23169-12.12985,13.51086-24.70987,17.86609-38.41696
				c5.09033-16.02037,14.43842-30.18361,24.07733-43.96432c2.76324-3.95052,5.53674-7.89381,8.66156-12.34775
				c-6.39465-2.1749-12.02661-0.61107-17.13983,2.05437c-20.96289,10.92758-35.69818,27.58803-43.87781,49.77237
				c-3.77612,10.24115-10.30988,18.70796-16.1886,27.63678c-4.03534,6.12888-6.6203,12.78632-7.90552,20.0853
				c-0.96368,5.47287-3.26343,10.29074-7.93347,14.12985c-6.06317,4.98428-11.41724,10.83176-17.60211,16.81625
				c-1.42587-4.82462-0.25427-8.26746,2.02545-11.34161c4.22083-5.69186,8.56573-11.29416,12.96558-16.8494
				c1.54034-1.94482,3.03302-4.02502,3.37933-6.36925c1.52045-10.29326,6.50134-18.8828,12.80475-26.81598
				c5.93439-7.4687,7.12207-17.30338,12.46832-24.93634c5.50171-7.85489,4.29938-16.76372,5.0791-25.33638
				c0.73938-8.12897,3.18372-15.89767,4.22546-23.93582c0.48334-3.72975,0.72937-7.46611-0.01245-11.6458
				c-6.63721,2.00066-11.02008,5.8145-14.68121,10.74753c-8.29285,11.17386-11.24402,23.9536-11.41956,37.56029
				c-0.09851,7.629-0.24725,15.27374,0.13281,22.88611c0.21259,4.25769-0.62366,7.63092-3.51373,10.88063
				c-8.53394,9.5959-12.74597,21.69785-18.47345,32.9117c-4.97839,9.74728-12.52063,17.81741-17.71716,27.41324
				c-0.43674,0.80634-1.18579,1.22726-2.31076,1.14496c-2.31531-1.49899-1.11301-3.44055-0.55316-5.40543
				c2.10214-7.37723,7.68411-13.36722,9.12909-20.81662c3.03421-15.6422,10.45596-29.11198,18.97012-42.19569
				c1.59515-2.45134,1.68774-5.39581,0.92255-8.07431c-3.23431-11.32121-4.45056-23.03951-6.96503-34.49992
				c-0.52454-2.39096-1.55896-4.12053-3.92761-5.66374c-7.07465,4.48016-9.0737,11.77831-9.84949,19.3194
				c-0.70667,6.86784-0.45667,13.85616,2.40826,20.40924c1.82324,4.17032-0.82092,7.74454-1.56079,11.55611
				c-0.66269,3.41418-1.35925,6.82364-0.99207,10.2877c0.92419,8.72-3.45685,16.95346-2.25766,25.68709
				c0.0654,0.47644-0.05176,1.16966-0.36401,1.47842c-9.18179,9.07837-12.69891,22.29288-22.5498,30.86722
				c-0.37146,0.3233-0.91132,0.45312-2.10739,1.02335c-0.8833-7.62936-1.01733-14.8511,1.3056-21.94901
				c2.15234-6.57651,4.77402-12.99474,8.63446-18.76274c1.87219-2.79739,1.80899-5.26135,0.65604-8.2468
				c-2.49557-6.4621-4.20895-13.10991-3.81192-20.16591c0.2731-4.85454,4.05524-10.55577,8.42542-12.17883
				c2.39832-0.89073,4.48996-0.29555,5.95386,1.8105c1.24033,1.78438,2.28516,3.70486,3.80917,6.21088
				c0.07468-4.47499-1.09473-8.03986-2.07816-11.59995c-3.08521-11.16899-2.31494-21.87454,3.63898-31.98024
				c1.04678-1.77675,2.24603-3.50578,3.61508-5.04272c4.97916-5.5901,10.1882-4.95113,13.08286,1.77707
				c3.29333,7.65482,3.99268,16.00333,5.86932,24.03778c1.31909,5.64787,2.55017,11.3163,4.10889,16.92975
				c0.32721-9.19054-0.29852-18.41273,1.50983-27.41498c3.3736-16.79448,7.99133-33.0181,23.32397-43.49843
				c2.39233-1.63528,4.97534-2.41629,7.65491-2.98532c4.60242-0.97726,7.21619,0.92508,8.14136,5.62283
				c2.08002,10.56117-0.39838,21.04684-0.56488,31.57097c-0.03723,2.36169-0.95026,4.72087,0.17102,7.43094
				c4.07922-3.88383,7.88739-7.74393,11.94427-11.32178c7.69202-6.78381,15.86542-12.82646,25.78717-16.10863
				c5.26685-1.74225,10.61609-1.66385,15.89471-0.75058c4.66943,0.80786,5.84949,5.108,2.4906,9.16605
				c-7.22406,8.72792-12.66748,18.47485-17.74341,28.55168c-5.13855,10.20125-9.5755,20.64935-13.38458,31.39604
				c-4.59137,12.95406-11.06714,24.94498-18.87268,36.22063c-5.9649,8.6167-10.10791,18.15546-13.23114,28.01801
				c-4.16876,13.16397-11.56165,24.26425-20.08484,34.80527c-11.93134,14.75613-19.96515,31.93652-29.83679,47.97324
				c-13.50137,21.93298-32.82224,35.92111-57.42157,43.29205c-19.57642,5.86591-39.69501,8.8439-59.67896,12.62775
				c-19.89294,3.76666-36.60016,13.92398-51.97464,26.60065c-0.7926,0.6535-1.59427,1.39474-2.11768,2.26089
				c-5.20868,8.61963-10.65677,16.29807-20.71826,19.02798c-4.54153,1.23221-4.24869,2.73434-9.74506,3.91846 M300.49115,448.77795
				c1.35913,4.3797,3.71188,8.19693,6.87787,11.45724c1.55966,1.60614,2.87827,4.42578,5.90756,2.72485
				c2.82162-1.58432,2.95178-4.68872,1.90356-6.90674c-3.66461-7.7543-0.79391-14.97119,1.36838-22.16293
				c1.50262-4.99786,0.11597-8.65164-3.35767-12.04971c-1.57108-1.5369-3.71384-2.64838-4.17691-5.11963
				c-1.21686-6.49332-7.61877-9.71112-9.8808-15.55762c-0.04944-0.12778-0.63705-0.04724-1.39261-0.08456
				c2.60196,8.91974-1.03476,16.22662-5.90604,23.16959c-2.14307,3.05441-2.43597,5.83795,0.18005,8.89737
				C295.75284,437.51761,297.9563,442.81683,300.49115,448.77795z M328.81808,396.52307
				c-0.84183-1.95139,0.75735-4.08987-0.51678-6.26202c-1.43933,0.44452-2.85815,1.21429-4.30383,1.26852
				c-4.79291,0.17996-5.46408,2.59412-4.07309,6.57538c0.84915,2.43045,1.8591,4.95917,1.08682,7.582
				c-1.33093,4.52042-0.48648,8.814,0.63177,13.2366c1.10406,4.36649,1.57486,8.83838-1.27048,12.95859
				c-0.7204,1.04318-1.65189,2.33572-0.39404,4.12543c4.57556-2.6163,10.20068-4.71893,10.50803-10.78403
				C330.95786,415.91888,333.7818,406.35739,328.81808,396.52307z M322.19427,439.91788
				c-4.0455,3.03671-6.20856,6.95377-5.09119,12.0777c1.00916,4.62793,2.51108,9.19604-2.13516,13.68213
				c15.31134-1.44794,24.043-19.87857,17.22464-35.10513C330.47717,435.50946,325.6796,436.32468,322.19427,439.91788z
				 M135.09569,213.89066c-4.82646,1.21338-5.12825,5.38432-5.07358,9.00021c0.10944,7.23445,1.09334,14.4516,1.37781,21.68918
				c0.16327,4.15375,0.10139,8.10512,2.50456,11.88593c4.97987,7.83469,9.58466,15.90793,14.34367,23.88309
				c-1.71208-10.7774-5.16656-20.89511-11.09894-29.86169c-3.17433-4.79796-3.09015-8.52948-0.85886-13.79219
				C139.35176,229.47462,141.11783,221.52353,135.09569,213.89066z M487.90213,258.0737
				c-2.53641,6.16025-5.17728,12.28964-5.88495,19.02448c2.70807-3.28247,5.1221-6.64236,7.18668-10.2049
				c3.18954-5.50394,8.17044-10.94742,8.74115-16.77434c0.98361-10.04272,1.97955-20.2682,1.47482-30.45323
				c-0.14594-2.94521-1.16867-5.71722-4.62213-6.92433c-5.11627,5.1765-5.53122,11.80463-3.02509,17.32417
				c4.17886,9.20375,4.37454,17.23015-2.11792,25.1422C489.11166,255.86957,488.71933,256.65512,487.90213,258.0737z
				 M314.14886,405.97003c1.05206,2.01282,2.10413,4.02563,3.0238,5.78519c4.18011-7.27756-2.28204-14.09952-0.48026-21.07263
				c-5.94199-1.58224-7.32397,3.57886-8.96112,6.48376c-1.52017,2.69739,2.4205,4.76486,4.65228,6.6131
				C312.90967,404.21515,313.31665,404.79477,314.14886,405.97003z M299.17908,459.45514
				c3.64484,6.25488,3.76794,6.3385,8.64462,5.71204c-7.88287-6.0304-10.43948-15.33487-14.9068-23.45148
				C294.0191,447.74866,294.05579,454.09811,299.17908,459.45514z M343.15585,439.14926
				c0.08173-0.66525,0.16342-1.33047,0.24515-1.9957c-0.25531-0.09076-0.51059-0.18149-0.76593-0.27222
				c-2.47897,6.15546-4.95798,12.31088-7.43698,18.46634C340.25424,451.31274,342.3378,445.89954,343.15585,439.14926z
				 M306.89899,406.01718c2.73248,1.30136,4.12064,3.40939,4.12149,6.49313c0.00089,3.11752,1.90717,4.72537,5.05527,6.04239
				c-0.73505-4.93951-2.92459-8.49545-5.64655-11.78018C309.4205,405.55518,308.27658,404.45566,306.89899,406.01718z"/>
			<path d="M510.0419,311.651c-4.78241,8.479-12.94516,12.38669-20.47083,16.71136
				c-8.49509,4.88181-16.38544,10.26495-22.74557,17.75964c-12.84564,15.13708-30.33539,20.16632-49.04935,22.50577
				c-0.2908,0.03635-0.62054-0.23828-1.38483-0.55594c5.05136-3.55731,10.9245-4.25131,16.25436-5.90961
				c11.60785-3.61166,21.4628-9.66681,29.10144-18.94907c7.90433-9.60513,17.95123-16.07693,28.7692-21.6936
				c7.41101-3.84775,13.2157-9.35052,16.77505-17.04364c2.50839-5.42163,0.90302-9.76208-4.63785-12.17673
				c-3.0687-1.33731-6.24557-2.02142-9.6152-1.2688c-15.71362,3.50983-29.14209,11.61441-41.6467,21.28641
				c-9.96234,7.70572-18.68066,16.96268-29.13138,24.08173c-3.0405,2.07117-6.28909,4.03079-10.69302,4.85092
				c0.51306-1.29742,0.57559-2.10251,1.00717-2.45349c14.19547-11.54489,25.08112-26.94769,41.36426-36.01184
				c11.12659-6.19376,22.04285-12.98373,34.91693-15.29813c8.03906-1.44513,15.45145-0.9411,21.71072,5.1799
				c3.1066,3.03802,4.15445,6.43384,2.41086,10.32147C511.7637,305.69293,512.12476,308.86182,510.0419,311.651z"/>
			<path d="M139.16771,322.24353c13.53073,6.78372,24.28937,16.31467,34.0504,27.289
				c6.97479,7.8418,16.70024,11.38608,26.48299,14.46094c5.52109,1.73541,11.06255,3.40604,16.59483,5.10587
				c-0.10524,0.45459-0.21049,0.90921-0.3157,1.3638c-6.40952-1.1825-12.87231-2.13327-19.21805-3.59317
				c-15.77896-3.6301-28.22067-12.40494-38.5407-24.78052c-4.9052-5.88223-11.90689-9.34531-18.53606-13.13
				c-5.69508-3.2515-11.41837-6.49985-16.1826-11.18204c-5.50587-5.41098-7.05296-12.20764-6.64319-19.43042
				c0.32693-5.76285,8.51871-10.53522,16.67412-10.35165c9.89162,0.22263,18.75259,3.66495,27.64777,7.80853
				c17.07907,7.95587,31.4538,19.19797,44.06256,33.03802c4.00705,4.39832,8.75189,8.12399,12.84425,12.61746
				c-6.66519-0.61011-11.65509-4.39014-16.46718-8.43378c-15.33345-12.88489-29.80402-26.89011-48.37532-35.41544
				c-7.71123-3.53989-15.52063-5.69431-24.01183-4.82605c-6.5118,0.66589-9.66717,6.56314-6.83514,12.60052
				C125.91573,312.88202,131.40305,318.42908,139.16771,322.24353z"/>
			<path d="M345.71198,356.78912c-8.7179,6.26282-16.26147,20.90323-20.21359,31.61465
				c-6.19095,2.2709-0.55164-14.00372,0.87933-16.53513c6.78464-12.00183,16.21188-21.45178,28.23495-28.22113
				c9.5899-5.39944,20.12201-7.79092,30.79138-10.15378c12.2352-2.70966,24.78882-4.72427,36.02002-10.9191
				c1.19513-0.65918,2.57025-1.01166,3.89023-1.41324c0.43823-0.1333,0.96545,0.0256,2.32864,0.0965
				c-6.41272,5.95929-12.35062,11.08286-20.45636,13.29544c-12.4747,3.40515-25.35046,5.06964-37.68869,9.0799
				C360.79953,346.46039,353.48502,351.6091,345.71198,356.78912z"/>
		</g>
		<path d="M293.20151,474.68649c0.95612,7.89828,5.27695,12.75275,10.25961,17.32492
			c4.23569,3.88675,8.15442,8.11884,11.70889,11.69113c2.89764-3.05969,6.27338-6.97089,10.01535-10.49289
			c5.38373-5.06735,10.7225-10.04529,11.1702-18.16312c2.0069,6.30826,1.64059,12.51416-1.37088,18.23123
			c-2.26526,4.30032-5.28217,8.22223-8.13019,12.19373c-4.08047,5.69009-8.31195,11.27191-12.46259,16.87787
			c-2.47144-8.46344-9.78387-14.46884-15.38522-21.72214c-4.81555-6.23575-7.60028-13.22818-6.85327-21.30246
			c0.07352-0.7944,0.14084-1.59363,0.29163-2.37509C292.55051,476.40311,292.79333,475.88303,293.20151,474.68649z"/>
	</g>
	<g>
		<path d="M219.58653,2.26764c-34.52022,22.91588-60.95883,52.77473-77.39667,91.04539
			c-16.39986,38.18225-19.81049,77.87221-12.91951,118.66299C105.26544,129.37825,143.66115,42.2117,219.58653,2.26764z"/>
		<path d="M408.01233,0.82678c83.92563,45.22309,113.5116,133.4026,92.9632,208.58704
			C512.08441,121.0911,482.13834,51.10781,408.01233,0.82678z"/>
		<path d="M446.0126,0c16.66165,10.94466,31.50595,23.91943,43.88583,39.55619
			c17.52661,22.13728,28.68158,47.4134,36.07532,74.48872c-7.58282-22.46658-17.71606-43.6467-31.40277-63.08622
			C480.90988,31.55558,464.71838,14.60061,446.0126,0z"/>
		<path d="M103.6679,112.16425c12.3989-46.13253,37.02436-83.77135,77.06306-110.70281
			C144.47197,31.0186,118.4826,67.70995,103.6679,112.16425z"/>
	</g>
</g>
<g>
	<g>
		<path d="M846.16058,211.39799c-0.16797-9.8125-1.16602-17.96387-2.99414-24.45117
			c-1.83301-6.4873-5.0332-11.35254-9.60645-14.5957c-4.57617-3.24414-11.18848-4.78027-19.83496-4.61621h-21.20801l-0.25,135.97951
			c0,4.49023-0.04199,8.3584-0.12402,11.60156c-0.08594,3.24316-0.29297,5.94922-0.62402,8.1084
			c3.49316-0.16309,6.94336-0.33105,10.35449-0.49902c3.40723-0.16309,6.86133-0.33105,10.35449-0.49902v10.97852h-58.63379v-8.2334
			c6.31934-0.33203,10.60449-1.82812,12.84961-4.49121c2.24609-2.65918,3.49316-6.27637,3.74316-10.85352
			c0.24902-4.57324,0.37402-9.6875,0.37402-15.34473L770.81,167.98393l-25.69824,0.25
			c-10.47949,0-17.88281,3.49316-22.20605,10.47949c-4.32715,6.98535-6.4873,17.88184-6.4873,32.68457h-9.23145l1.49707-52.64551
			h145.45996l1.49707,52.64551H846.16058z"/>
		<path d="M961.92914,268.78375c0-7.31738-0.99805-12.55762-2.99414-15.71877c-1.99609-3.1582-5.15723-5.07227-9.48047-5.73828
			c-4.32812-0.66309-10.06641-0.83105-17.21582-0.49902l-18.21387,0.74805v57.13673c0,4.49023-0.04297,8.31934-0.125,11.47656
			c-0.08594,3.16211-0.29199,5.82422-0.62402,7.98438l47.65527-0.74902c7.31738-0.16309,13.63672-1.37207,18.96191-3.61719
			c5.32227-2.24609,9.48145-6.19531,12.47559-11.85156c2.99414-5.65332,4.49121-13.3877,4.49121-23.2041h8.4834l-1.49707,48.65332
			H875.10199v-8.2334c6.31934-0.33203,10.64355-1.78613,12.97461-4.36621c2.32715-2.57715,3.61719-6.15234,3.86719-10.72852
			c0.24902-4.57324,0.37402-9.76953,0.37402-15.59473V186.69682c0-3.3252,0.08203-6.52539,0.25-9.60547
			c0.16309-3.07617,0.33105-5.86328,0.49902-8.3584c-2.99414,0.16797-5.98828,0.33496-8.98242,0.49902
			c-2.99414,0.16797-5.98828,0.33496-8.98242,0.49902v-10.97852h120.01074l1.24805,43.66309h-8.2334
			c0-9.8125-1.49707-17.25488-4.49121-22.33008c-2.99414-5.07227-7.0293-8.4834-12.10059-10.22949
			c-5.07617-1.74707-10.77148-2.53418-17.0918-2.37109l-21.45703,0.49902c-6.15527,0.16797-10.56445,1.33398-13.22363,3.49316
			c-2.66211,2.16406-4.28418,5.36426-4.86523,9.60645c-0.58496,4.24121-0.87305,9.77344-0.87305,16.5918v39.91992l46.90625,0.25
			l-1.74609-21.45703h10.97754v52.39552H961.92914z"/>
		<path d="M1166.7699,337.39703l-99.55176-133.73341c-1.49707-1.99609-2.95508-3.94922-4.36621-5.86328
			c-1.41504-1.91016-2.86914-3.86719-4.36621-5.86328h-0.25l0.74902,106.78712c0,4.15918,0,8.31934,0,12.47461
			c0,4.16016-0.16797,8.23438-0.49902,12.22559c2.99414-0.16309,5.98828-0.33105,8.98145-0.49902
			c2.99414-0.16309,5.98828-0.33105,8.98242-0.49902v10.97852h-45.65918v-8.2334c5.1543,0,8.85742-1.12305,11.10352-3.36816
			c2.24512-2.24609,3.69922-4.9043,4.36621-7.98438c0.66211-3.07617,0.99805-5.86328,0.99805-8.3584l0.24902-120.01076
			c0-2.82617,0-5.65332,0-8.4834c0-2.82617,0-5.57129,0-8.2334c-2.66211,0.16797-5.40723,0.33496-8.2334,0.49902
			c-2.83008,0.16797-5.65723,0.33496-8.4834,0.49902v-10.97852h29.69141l93.56348,125.25099
			c2.15918,2.83008,4.28027,5.65625,6.3623,8.48242c2.07812,2.83105,4.19824,5.65723,6.3623,8.4834h0.24902l0.25-114.27248
			c0-3.3252,0.08203-6.52539,0.24902-9.60547c0.16406-3.07617,0.33203-5.86328,0.49902-8.3584
			c-2.99414,0.16797-5.9873,0.33496-8.98145,0.49902c-2.99414,0.16797-5.98828,0.33496-8.98242,0.49902v-10.97852h45.9082v8.2334
			c-6.15527,0.16797-10.39648,1.58301-12.72461,4.24219c-2.33105,2.66211-3.57812,6.2373-3.74219,10.72852
			c-0.16797,4.49121-0.25,9.73047-0.25,15.71875l-0.49902,139.72169H1166.7699z"/>
		<path d="M1220.4115,325.17145c6.31934-0.33203,10.64258-1.78613,12.97363-4.36621
			c2.32812-2.57715,3.61816-6.15234,3.86719-10.72852c0.25-4.57324,0.375-9.76953,0.375-15.59473V186.69682
			c0-3.3252,0.08105-6.52539,0.24902-9.60547c0.16406-3.07617,0.33105-5.86328,0.49902-8.3584
			c-2.99414,0.16797-5.98828,0.33496-8.98242,0.49902c-2.99316,0.16797-5.9873,0.33496-8.98145,0.49902v-10.97852l58.88281-0.24902
			c14.96973,0,28.69238,1.74609,41.16797,5.23926c12.47461,3.49316,23.24219,8.85742,32.31055,16.09277
			c9.06348,7.23633,16.0498,16.38574,20.95801,27.44531c4.9043,11.06445,7.36035,24.07715,7.36035,39.04785
			c0,11.47658-1.99609,22.45509-5.98828,32.93361c-3.99219,10.47949-9.97949,19.75391-17.96387,27.82031
			c-7.98438,8.06934-17.92578,14.4707-29.81543,19.21191c-11.89453,4.74023-25.66016,7.11035-41.29297,7.11035h-65.61914V325.17145z
			 M1259.33337,303.96344c0,4.49121-0.04297,8.31934-0.12402,11.47754c-0.08594,3.16113-0.29297,5.82422-0.62402,7.9834
			c4.49121,0.16797,8.60742,0.29297,12.35059,0.375c3.74219,0.08496,6.90039,0.12402,9.48047,0.12402c2.57715,0,4.19922,0,4.86523,0
			c10.81055,0,20.58398-1.99609,29.31738-5.9873c8.73242-3.99219,16.21777-9.52051,22.45508-16.59277
			c6.2373-7.06738,11.05957-15.38281,14.4707-24.9502c3.40723-9.5625,5.11523-19.91699,5.11523-31.06252
			c0-15.80078-2.86914-29.48047-8.6084-41.04395c-5.73828-11.55859-14.51367-20.54102-26.32227-26.94629
			c-11.8125-6.40137-26.86426-9.60547-45.16016-9.60547c-6.15527,0-10.43945,1.24707-12.84961,3.74219
			c-2.41309,2.49512-3.74219,5.98828-3.99121,10.47949c-0.25,4.49121-0.375,9.73047-0.375,15.71875V303.96344z"/>
		<path d="M1462.4281,166.98589c-6.15625,0.16797-10.44043,1.58301-12.84961,4.24219
			c-2.41309,2.66211-3.74219,6.2373-3.99219,10.72852c-0.24902,4.49121-0.37402,9.73047-0.37402,15.71875v106.03908
			c0,4.49023-0.04297,8.3584-0.125,11.60156c-0.08594,3.24316-0.29199,5.94922-0.62402,8.1084
			c2.99414-0.16309,5.98828-0.33105,8.98242-0.49902c2.99414-0.16309,5.98828-0.33105,8.98242-0.49902v10.97852h-56.13867v-8.2334
			c6.31934-0.33203,10.64355-1.78613,12.97461-4.36621c2.32715-2.57715,3.61719-6.15234,3.86719-10.72852
			c0.24902-4.57324,0.37402-9.76953,0.37402-15.59473V186.69682c0-3.3252,0.08203-6.52539,0.25-9.60547
			c0.16309-3.07617,0.33105-5.86328,0.49902-8.3584c-2.99414,0.16797-5.98828,0.33496-8.98242,0.49902
			c-2.99414,0.16797-5.98828,0.33496-8.98242,0.49902v-10.97852h56.13867V166.98589z"/>
		<path d="M1626.349,337.39703l-99.55176-133.73341c-1.49707-1.99609-2.95508-3.94922-4.36621-5.86328
			c-1.41504-1.91016-2.86914-3.86719-4.36621-5.86328h-0.24902l0.74805,106.78712c0,4.15918,0,8.31934,0,12.47461
			c0,4.16016-0.16699,8.23438-0.49902,12.22559c2.99414-0.16309,5.98828-0.33105,8.98242-0.49902
			c2.99414-0.16309,5.98828-0.33105,8.98242-0.49902v10.97852h-45.65918v-8.2334c5.15332,0,8.85742-1.12305,11.10254-3.36816
			c2.24609-2.24609,3.7002-4.9043,4.36621-7.98438c0.66309-3.07617,0.99805-5.86328,0.99805-8.3584l0.25-120.01076
			c0-2.82617,0-5.65332,0-8.4834c0-2.82617,0-5.57129,0-8.2334c-2.66309,0.16797-5.40723,0.33496-8.23438,0.49902
			c-2.83008,0.16797-5.65625,0.33496-8.48242,0.49902v-10.97852h29.69043l93.56348,125.25099
			c2.16016,2.83008,4.28125,5.65625,6.3623,8.48242c2.07812,2.83105,4.19922,5.65723,6.3623,8.4834h0.25l0.24902-114.27248
			c0-3.3252,0.08203-6.52539,0.25-9.60547c0.16309-3.07617,0.33105-5.86328,0.49902-8.3584
			c-2.99414,0.16797-5.98828,0.33496-8.98242,0.49902c-2.99414,0.16797-5.98828,0.33496-8.98242,0.49902v-10.97852h45.90918v8.2334
			c-6.15625,0.16797-10.39746,1.58301-12.72461,4.24219c-2.33105,2.66211-3.5791,6.2373-3.74316,10.72852
			c-0.16699,4.49121-0.24902,9.73047-0.24902,15.71875l-0.49902,139.72169H1626.349z"/>
		<path d="M1762.82556,337.39703c-16.63477,0-31.35547-3.49316-44.16211-10.47949
			c-12.81055-6.98633-22.79004-17.04785-29.94043-30.18945c-7.15332-13.1377-10.72852-28.77441-10.72852-46.90627
			c0-11.80859,1.78613-23.3291,5.36426-34.55664c3.5752-11.22754,8.98242-21.41406,16.21777-30.56445
			c7.23633-9.14551,16.2998-16.42383,27.19629-21.83105c10.89258-5.40332,23.57812-8.10938,38.04883-8.10938
			c5.98828,0,12.05859,0.54199,18.21387,1.62207c6.15137,1.08398,12.10059,2.66309,17.83984,4.74023
			c5.73828,2.08203,10.93457,4.53418,15.59375,7.36035l-0.99805-11.97559h13.72266v57.13574h-8.98242
			c-0.66602-10.47852-3.4541-19.33594-8.3584-26.57129c-4.9082-7.23633-11.27051-12.76367-19.08691-16.59277
			c-7.82031-3.82422-16.55273-5.73828-26.19727-5.73828c-8.81836,0-17.09082,1.95703-24.82617,5.86328
			c-7.73438,3.91016-14.55664,9.39941-20.45898,16.46777c-5.90625,7.07129-10.52246,15.42969-13.84766,25.07422
			c-3.3291,9.64941-4.99023,20.2959-4.99023,31.93652c0,15.63673,2.82715,29.60939,8.4834,41.91701
			c5.65332,12.31152,13.5127,21.95605,23.57812,28.94238c10.0625,6.98535,21.66406,10.47852,34.80566,10.47852
			c4.49121,0,9.18848-0.41309,14.09668-1.24707c4.9043-0.83008,9.8125-2.20312,14.7207-4.11719
			c4.9043-1.91016,9.52051-4.28027,13.84766-7.11035v-30.43945c0-3.99219,0-8.02344,0-12.10059c0-4.07422,0-8.10938,0-12.10156
			c-2.83008,0.16797-5.73828,0.33594-8.73242,0.49902c-2.99414,0.16797-5.90625,0.33594-8.73242,0.49902v-10.97755h56.3877v8.23341
			c-4.65918,0-8.23438,1.20801-10.72949,3.61719c-2.49414,2.41309-4.24121,5.32617-5.23926,8.7334
			c-0.99805,3.41113-1.58301,6.73633-1.74609,9.97949c-0.16797,3.24414-0.25,5.7002-0.25,7.36035v38.17383h-6.73633
			c-2.66309,0-6.32324,0.49902-10.97852,1.49707c-4.6582,0.99805-9.97949,2.66309-15.96777,4.99023
			c-5.1582,1.99609-11.14551,3.5752-17.96387,4.74023C1774.46716,336.81207,1768.31482,337.39703,1762.82556,337.39703z"/>
		<path d="M2066.21436,211.39799c-0.16797-9.8125-1.16602-17.96387-2.99414-24.45117
			c-1.83203-6.4873-5.0332-11.35254-9.60547-14.5957c-4.57715-3.24414-11.1886-4.78027-19.83606-4.61621h-21.20801
			l-0.24902,135.97951c0,4.49023-0.04297,8.3584-0.125,11.60156c-0.08594,3.24316-0.29199,5.94922-0.62305,8.1084
			c3.49219-0.16309,6.94238-0.33105,10.35352-0.49902c3.40723-0.16309,6.86133-0.33105,10.35449-0.49902v10.97852h-58.63281v-8.2334
			c6.31934-0.33203,10.60352-1.82812,12.84961-4.49121c2.24512-2.65918,3.49316-6.27637,3.74219-10.85352
			c0.25-4.57324,0.37402-9.6875,0.37402-15.34473l0.25-126.49806l-25.69922,0.25c-10.47852,0-17.88184,3.49316-22.20605,10.47949
			c-4.32715,6.98535-6.48633,17.88184-6.48633,32.68457h-9.23145l1.49609-52.64551h145.46106l1.49707,52.64551H2066.21436z"/>
		<path d="M2181.73389,337.39703c-15.80469,0-29.35938-2.66309-40.66992-7.98438
			c-11.3125-5.32129-20.50098-12.43164-27.56934-21.33203c-7.07129-8.89648-12.26855-18.75195-15.59375-29.56641
			c-3.3291-10.81055-4.99023-21.62109-4.99023-32.43556c0-10.47852,1.74707-21.08301,5.24023-31.81152
			s8.85742-20.58398,16.09277-29.56641c7.23535-8.98145,16.29883-16.21777,27.19531-21.70605
			c10.89258-5.48926,23.66016-8.23438,38.29883-8.23438c15.30078,0,28.52539,2.74512,39.67188,8.23438
			c11.14062,5.48828,20.33398,12.76758,27.56836,21.83105c7.23633,9.06836,12.64062,18.92285,16.21875,29.56641
			c3.57422,10.64648,5.36328,21.20801,5.36328,31.68652c0,10.31544-1.74609,20.834-5.23828,31.56252
			c-3.49414,10.72852-8.85742,20.62695-16.09375,29.69043c-7.23438,9.06836-16.25977,16.34277-27.07031,21.83203
			C2209.34326,334.65192,2196.53662,337.39703,2181.73389,337.39703z M2182.23193,327.16754
			c10.3125,0,19.29492-2.20312,26.94727-6.6123c7.64844-4.40527,14.01172-10.31152,19.08594-17.71484
			c5.07227-7.39941,8.89648-15.63281,11.47852-24.7002c2.57617-9.06445,3.86719-18.1709,3.86719-27.3213
			c0-10.31055-1.41602-20.54102-4.24219-30.68848c-2.83008-10.14355-6.98633-19.375-12.47461-27.69434
			c-5.49023-8.31543-12.26953-15.00977-20.33398-20.08496c-8.07031-5.07227-17.25977-7.61035-27.57031-7.61035
			c-10.31641,0-19.33789,2.24512-27.07227,6.73633s-14.13867,10.44043-19.21094,17.83984
			c-5.07617,7.40332-8.90039,15.63672-11.47656,24.70117c-2.58105,9.06738-3.86816,18.25586-3.86816,27.56934
			c0,9.15039,1.28711,18.71291,3.86816,28.69337c2.57617,9.97949,6.52539,19.29688,11.85156,27.94434
			c5.32031,8.65039,12.05664,15.63672,20.20898,20.95801C2161.43896,324.50836,2171.0874,327.16754,2182.23193,327.16754z"/>
		<path d="M2441.70947,337.39703c-16.63477,0-31.35547-3.49316-44.16211-10.47949
			c-12.81055-6.98633-22.79004-17.04785-29.94043-30.18945c-7.15332-13.1377-10.72852-28.77441-10.72852-46.90627
			c0-11.80859,1.78516-23.3291,5.36426-34.55664c3.5752-11.22754,8.98242-21.41406,16.21777-30.56445
			c7.23535-9.14551,16.2998-16.42383,27.19629-21.83105c10.8916-5.40332,23.57715-8.10938,38.04883-8.10938
			c5.98828,0,12.05762,0.54199,18.21387,1.62207c6.15137,1.08398,12.10059,2.66309,17.83887,4.74023
			c5.73926,2.08203,10.93555,4.53418,15.59473,7.36035l-0.99805-11.97559h13.72266v57.13574h-8.98242
			c-0.66699-10.47852-3.4541-19.33594-8.3584-26.57129c-4.9082-7.23633-11.27051-12.76367-19.08691-16.59277
			c-7.82031-3.82422-16.55273-5.73828-26.19824-5.73828c-8.81836,0-17.09082,1.95703-24.8252,5.86328
			c-7.73438,3.91016-14.55664,9.39941-20.45898,16.46777c-5.90625,7.07129-10.52246,15.42969-13.84766,25.07422
			c-3.3291,9.64941-4.99023,20.2959-4.99023,31.93652c0,15.63673,2.82617,29.60939,8.4834,41.91701
			c5.65234,12.31152,13.51172,21.95605,23.57812,28.94238c10.06152,6.98535,21.66406,10.47852,34.80566,10.47852
			c4.49121,0,9.18848-0.41309,14.09668-1.24707c4.9043-0.83008,9.8125-2.20312,14.7207-4.11719
			c4.9043-1.91016,9.52051-4.28027,13.84766-7.11035v-30.43945c0-3.99219,0-8.02344,0-12.10059c0-4.07422,0-8.10938,0-12.10156
			c-2.83008,0.16797-5.73926,0.33594-8.73242,0.49902c-2.99414,0.16797-5.90625,0.33594-8.7334,0.49902v-10.97755h56.3877v8.23341
			c-4.6582,0-8.2334,1.20801-10.72852,3.61719c-2.49512,2.41309-4.24121,5.32617-5.23926,8.7334
			c-0.99805,3.41113-1.58301,6.73633-1.74609,9.97949c-0.16797,3.24414-0.25,5.7002-0.25,7.36035v38.17383h-6.73633
			c-2.66309,0-6.32324,0.49902-10.97852,1.49707c-4.6582,0.99805-9.98047,2.66309-15.96777,4.99023
			c-5.1582,1.99609-11.14648,3.5752-17.96484,4.74023C2453.3501,336.81207,2447.19873,337.39703,2441.70947,337.39703z"/>
		<path d="M2548.74365,333.40485v-8.2334c6.31934-0.33203,10.64258-1.78613,12.97461-4.36621
			c2.32715-2.57715,3.61719-6.15234,3.86719-10.72852c0.24902-4.57324,0.37402-9.76953,0.37402-15.59473V186.69682
			c0-3.3252,0.08203-6.52539,0.24902-9.60547c0.16406-3.07617,0.33203-5.86328,0.49902-8.3584
			c-2.99414,0.16797-5.9873,0.33496-8.98145,0.49902c-2.99414,0.16797-5.98828,0.33496-8.98242,0.49902v-10.97852
			c9.31348-0.16309,18.75195-0.33105,28.31836-0.49902c9.56348-0.16309,19.16895-0.08203,28.81738,0.25
			c16.13281,0.16699,29.14941,2.03906,39.04785,5.61328c9.89453,3.5791,17.17285,8.65137,21.83105,15.21973
			c4.65527,6.57324,6.98633,14.51465,6.98633,23.82812c0.16406,6.48633-1.04102,13.09863-3.61816,19.83496
			c-2.58008,6.73633-7.23535,12.76758-13.97168,18.08887c-6.73633,5.3252-16.42871,9.31738-29.06738,11.97656
			c3.3252,2.33105,6.2373,5.32521,8.73242,8.98244c2.49512,3.66016,5.32227,7.90137,8.4834,12.72461l16.96582,26.69629
			c2.82715,4.49121,5.57129,8.52637,8.23438,12.10059c2.6582,3.5791,5.73828,6.40527,9.23145,8.4834
			c3.49316,2.08203,7.81641,3.11914,12.97363,3.11914v8.2334h-31.4375c-4.82617-4.32324-8.85645-8.64648-12.10059-12.97461
			c-3.24316-4.32324-6.61133-9.23145-10.10449-14.7207l-16.7168-26.69629c-2.16406-3.49316-4.61621-7.52441-7.36035-12.10059
			c-2.74414-4.57324-5.86328-8.44043-9.35645-11.60255c-2.66309,0.16797-5.4502,0.25-8.3584,0.25
			c-2.91211,0-5.78125-0.08203-8.60742-0.25v48.40431c0,4.49023-0.04297,8.3584-0.125,11.60156
			c-0.08594,3.24316-0.29297,5.94922-0.62402,8.1084c1.99609-0.16309,3.99219-0.28809,5.98828-0.37402
			c1.99609-0.08203,3.99219-0.20605,5.98828-0.37402c1.99609-0.16406,3.99219-0.25,5.9873-0.25v10.97852H2548.74365z
			 M2603.13525,246.07866c9.14551-0.33105,17.17285-1.82812,24.07715-4.49121c6.90039-2.6582,12.35059-6.90039,16.34277-12.72461
			c3.99121-5.82031,5.9873-13.47266,5.9873-22.9541c0-6.31934-0.87305-11.85156-2.61914-16.5918
			c-1.74707-4.74023-4.45215-8.68945-8.10938-11.85156c-3.66016-3.15723-8.31934-5.52832-13.97168-7.11035
			c-5.65723-1.5791-12.31152-2.37109-19.96094-2.37109c-6.15527,0-10.43945,1.24805-12.84863,3.74316
			c-2.41309,2.49512-3.74316,5.94922-3.99219,10.35449c-0.25,4.40918-0.37402,9.60547-0.37402,15.59375v47.9043
			c2.6582,0.16797,5.19629,0.33496,7.60938,0.49902C2597.68506,246.24663,2600.30518,246.24663,2603.13525,246.07866z"/>
		<path d="M2761.56689,166.98589c-6.15527,0.16797-10.43945,1.58301-12.84863,4.24219
			c-2.41309,2.66211-3.74316,6.2373-3.99219,10.72852c-0.25,4.49121-0.37402,9.73047-0.37402,15.71875v106.03908
			c0,4.49023-0.04297,8.3584-0.125,11.60156c-0.08594,3.24316-0.29297,5.94922-0.62402,8.1084
			c2.99414-0.16309,5.98828-0.33105,8.98242-0.49902c2.99414-0.16309,5.98828-0.33105,8.98145-0.49902v10.97852h-56.1377v-8.2334
			c6.31934-0.33203,10.64258-1.78613,12.97461-4.36621c2.32715-2.57715,3.61719-6.15234,3.86719-10.72852
			c0.24902-4.57324,0.37402-9.76953,0.37402-15.59473V186.69682c0-3.3252,0.08203-6.52539,0.24902-9.60547
			c0.16406-3.07617,0.33203-5.86328,0.49902-8.3584c-2.99414,0.16797-5.9873,0.33496-8.98145,0.49902
			c-2.99414,0.16797-5.98828,0.33496-8.98242,0.49902v-10.97852h56.1377V166.98589z"/>
		<path d="M2875.8374,268.78375c0-7.31738-0.99805-12.55762-2.99414-15.71877c-1.99609-3.1582-5.15723-5.07227-9.48145-5.73828
			c-4.32715-0.66309-10.06543-0.83105-17.21582-0.49902l-18.21289,0.74805v57.13673c0,4.49023-0.04297,8.31934-0.125,11.47656
			c-0.08594,3.16211-0.29297,5.82422-0.62402,7.98438l47.65527-0.74902c7.31738-0.16309,13.63672-1.37207,18.96191-3.61719
			c5.32129-2.24609,9.48145-6.19531,12.47559-11.85156c2.99414-5.65332,4.49121-13.3877,4.49121-23.2041h8.48242l-1.49707,48.65332
			h-128.74316v-8.2334c6.31934-0.33203,10.64258-1.78613,12.97461-4.36621c2.32715-2.57715,3.61719-6.15234,3.86719-10.72852
			c0.24902-4.57324,0.37402-9.76953,0.37402-15.59473V186.69682c0-3.3252,0.08203-6.52539,0.24902-9.60547
			c0.16406-3.07617,0.33203-5.86328,0.49902-8.3584c-2.99414,0.16797-5.9873,0.33496-8.98145,0.49902
			c-2.99414,0.16797-5.98828,0.33496-8.98242,0.49902v-10.97852H2909.021l1.24805,43.66309h-8.23438
			c0-9.8125-1.49707-17.25488-4.49023-22.33008c-2.99414-5.07227-7.0293-8.4834-12.10156-10.22949
			c-5.0752-1.74707-10.77148-2.53418-17.09082-2.37109l-21.45703,0.49902c-6.15625,0.16797-10.56543,1.33398-13.22363,3.49316
			c-2.66309,2.16406-4.28418,5.36426-4.86523,9.60645c-0.58496,4.24121-0.87305,9.77344-0.87305,16.5918v39.91992l46.90625,0.25
			l-1.74707-21.45703h10.97852v52.39552H2875.8374z"/>
		<path d="M2944.19971,333.40485v-8.2334c6.31934-0.33203,10.64258-1.78613,12.97461-4.36621
			c2.32715-2.57715,3.61719-6.15234,3.86719-10.72852c0.24902-4.57324,0.37402-9.76953,0.37402-15.59473V186.69682
			c0-3.3252,0.08203-6.52539,0.24902-9.60547c0.16406-3.07617,0.33203-5.86328,0.49902-8.3584
			c-2.99414,0.16797-5.9873,0.33496-8.98145,0.49902c-2.99414,0.16797-5.98828,0.33496-8.98242,0.49902v-10.97852h115.76953
			l1.24707,43.66309h-8.2334c0-9.8125-1.58301-17.25488-4.74023-22.33008c-3.16211-5.07227-7.32129-8.4834-12.47559-10.22949
			c-5.15723-1.74707-10.89648-2.53418-17.21582-2.37109l-18.21387,0.49902c-6.15527,0.16797-10.39648,1.62207-12.72461,4.36719
			c-2.33105,2.74414-3.66016,6.3623-3.99121,10.85254c-0.33594,4.49121-0.49902,9.64941-0.49902,15.46973v42.91406l43.41309,0.25
			l-1.74609-21.70703h10.97754v52.64552h-7.9834c0-7.48535-1.04102-12.80664-3.11914-15.96875
			c-2.08203-3.15724-5.28223-5.0713-9.60645-5.7383c-4.32715-0.66309-9.97949-0.83008-16.96582-0.49902l-14.96973,0.74805v52.3965
			c0,4.49023-0.04297,8.3584-0.125,11.60156c-0.08594,3.24316-0.29297,5.94922-0.62402,8.1084
			c2.82617-0.16309,5.65332-0.28809,8.4834-0.37402c2.82617-0.08203,5.65234-0.20605,8.4834-0.37402
			c2.82617-0.16406,5.65234-0.25,8.48242-0.25v10.97852H2944.19971z"/>
	</g>
</g>
</svg>
