<?xml version="1.0" encoding="utf-8"?>
<!-- Generator: Adobe Illustrator 25.4.1, SVG Export Plug-In . SVG Version: 6.00 Build 0)  -->
<svg version="1.1" id="Layer_1" xmlns="http://www.w3.org/2000/svg" xmlns:xlink="http://www.w3.org/1999/xlink" x="0px" y="0px"
	 viewBox="0 0 2365.50391 831.22485" style="enable-background:new 0 0 2365.50391 831.22485;" xml:space="preserve">
<g>
	<g>
		<g>
			<path d="M1059.91858,213.58914c5.84192,2.52327,9.51294,7.18117,12.4021,12.73824
				c3.83716,7.3808,7.4635,14.96695,12.16321,21.78761c23.58789,34.23254,69.29028,26.99985,86.62231-0.03319
				c1.94482-3.03349,3.85474-6.08954,5.6134-8.87045v49.18193c-3.76257-2.10144-7.69849-4.9223-12.07251-6.604
				c-7.49121-2.88016-15.74902-3.84744-22.54688-10.21765c1.1582,10.60977,3.79834,19.5777,10.26685,27.02655
				c7.53833,8.68088,17.28528,11.91464,28.63269,10.81628c4.95227,21.26733,6.74707,42.29852,2.86023,64.31558
				c-4.47388-6.8187-10.05774-11.29385-16.58545-14.6261c8.39014,10.78647,13.78638,23.32065,12.40991,29.51648
				c2.8457-0.15652,5.70154-0.15598,8.52893-0.46747c0.21802-1.08273,0.33044-1.72568,0.49292-2.35522
				c3.49548-13.54477,5.87012-27.26556,6.01489-41.28259c0.02637-2.5549,0.60388-4.00977,2.89136-5.4115
				c21.15613-12.96457,19.45569-38.1153,11.96155-51.00043c-2.73499,11.05652-13.53589,15.60464-19.02502,25.32672
				c-5.74805-25.85803-7.98779-51.11105-7.02686-76.72401c3.63062,6.91086,7.97852,13.12471,13.91309,18.11758
				c14.06995,11.8373,30.54675,13.44725,47.87903,11.05421c18.56226-2.5629,34.63049-11.04349,50.01172-21.21553
				c7.16028-4.73531,10.5896-11.06796,8.99255-19.51352c-2.00586-10.60603,1.45874-19.55627,7.41614-27.95499
				c1.98376-2.79674,4.05176-5.55569,5.771-8.51233c1.88513-3.24182,3.69836-6.58357,5.02271-10.07887
				c1.6825-4.44113,0.74829-6.30441-3.61096-8.36899c-6.15149-2.91339-12.72009-3.54468-19.41528-3.13635
				c-15.86121,0.96738-29.55798,7.29459-41.85461,17.03819c-0.80676,0.63925-1.58411,1.3156-2.38916,1.95711
				c-0.69995,0.55788-1.41968,1.09088-2.72559,2.09003c6.67065-17.55284,7.7135-34.73642,3.77795-52.26169
				c-0.26331-1.17264-0.29565-2.56895,0.08655-3.68198c1.07336-3.12561,2.34363-6.19096,3.6748-9.21913
				c2.57703-5.86227,7.05493-9.61469,13.36145-10.57837c3.47644-0.53117,7.10071-0.09509,11.01233-0.09509
				c-3.21716-5.60942-7.91284-8.99416-12.99268-11.88232c-12.12183-6.89212-24.88647-10.78419-39.0083-7.61457
				c-1.91565-7.21977-6.38696-12.07833-12.57288-15.38978c-9.64844-5.16492-19.3678-10.19778-29.07532-15.2516
				c-4.37-2.27501-8.88843-3.47012-13.87183-2.06374c-1.03809,0.29295-2.50134-0.05423-3.49158-0.60468
				c-5.02075-2.79084-9.75159-2.08201-14.09937,1.21342c-2.15881,1.6363-4.13318,3.66756-5.73755,5.85296
				c-3.57666,4.87159-8.24744,8.05303-13.71777,10.45482c-3.52454,1.54745-7.27783,3.24615-9.97607,5.86021
				c-5.31372,5.14782-11.46985,6.38844-18.47656,6.51233c-3.74695,0.06622-7.99963,0.70673-11.10693,2.59629
				c-11.79724,7.17371-15.42969,25.38417-7.98706,36.92928c0.69946,1.08493,1.07288,2.79733,0.7887,4.0323
				c-2.06726,8.98587-1.84387,17.92949,0.13501,26.86288c3.50085,15.80394,11.21997,29.58797,20.5459,42.58949
				c0.74512,1.03879,1.49487,2.07426,2.53882,3.52225c-1.28699,0-1.85352-0.00327-2.41992,0.0005
				c-8.81018,0.05859-16.28931-3.80959-23.82117-7.77638c-4.71729-2.48442-9.60803-4.93948-14.71436-6.32993
				c-16.48462-4.48888-32.71936,7.77449-33.19568,24.89641C1047.44714,211.58739,1053.44385,210.79251,1059.91858,213.58914z
				 M1172.34814,301.80975c-5.75391-3.47275-11.50769-6.94553-17.26147-10.41827c0.16858-0.28415,0.33716-0.5683,0.50574-0.85245
				c5.79578,3.45694,11.59143,6.91388,17.38721,10.37082C1172.76904,301.20984,1172.55859,301.5098,1172.34814,301.80975z
				 M1151.83911,286.16486c5.51086,0.2941,20.78845,8.76334,23.99353,12.99295
				C1168.14587,294.9953,1160.04541,290.60873,1151.83911,286.16486z M1207.77869,306.6579
				c0.39258,0.16956,0.78503,0.33908,1.17749,0.50861c-2.24036,5.16708-4.48071,10.33414-6.72107,15.50125
				c-0.27808-0.12115-0.55603-0.24234-0.83398-0.36349C1203.52698,317.08881,1205.65283,311.87338,1207.77869,306.6579z
				 M1264.64148,199.88515c9.81055-9.01863,20.88489-15.94614,34.23645-18.45683c2.55554-0.48059,5.21936-0.57506,7.82776-0.53127
				c2.54028,0.04266,3.21008,1.5793,1.95557,3.70407c-1.56592,2.65186-3.2511,5.23923-4.9939,7.7796
				c-6.29065,9.16998-10.97864,18.96965-12.05725,30.21121c-0.1637,1.70515-0.3999,3.42775-0.31506,5.12791
				c0.30432,6.09792-2.32471,10.30415-7.87366,12.75819c-14.45532,6.3931-29.29297,11.63383-44.95007,14.13126
				c-10.29016,1.64137-20.61218,1.88118-30.01221-3.58859c-4.12317-2.39919-7.75061-5.65033-11.60315-8.51463
				c0.19092-0.30917,0.38184-0.6183,0.57275-0.92743c11.11255,4.4287,22.14441,4.40703,33.09521-0.23688
				c-13.00537,1.418-24.65625-0.75865-32.9906-12.2691c1.16614,0.33965,2.36108,0.60284,3.49402,1.03044
				c15.37939,5.80423,29.01172,2.54869,40.90015-8.30608C1249.69336,214.7063,1256.8988,207.00284,1264.64148,199.88515z
				 M1197.57727,168.4666c-5.94324-2.87755-12.06958-5.37691-18.40869-8.17839c3.88135-5.40155,9.37134-7.29893,15.1792-7.96201
				c6.11108-0.69771,12.32874-0.40581,18.46826-0.92223c7.37756-0.62056,14.82666-1.13895,22.0437-2.65723
				c4.88794-1.02835,9.4292-3.70403,14.3512-5.73604c0.11768,0.89542,0.40723,2.28717,0.46875,3.68898
				c0.88,20.04657-1.95044,39.25143-13.47449,56.29033c-8.26184,12.21567-23.04468,20.31627-36.3053,19.92287
				c6.27051-6.98793,10.64307-14.45238,12.58191-23.24974C1215.52686,185.84663,1210.30701,174.62997,1197.57727,168.4666z
				 M1163.86877,111.1329c-6.13013-0.71507-11.37781-1.32721-17.09863-1.9945c2.13403-6.98521,7.92822-9.67181,15.22205-12.15289
				C1159.04456,102.27872,1159.9707,106.64651,1163.86877,111.1329z M1149.4574,122.10586
				c4.1073,1.50261,8.33411,3.04888,12.55359,4.59251c6.63147-10.59106,23.96411-7.0469,30.00659,1.28584
				c-10.11194,5.6139-19.83862,11.69616-24.82971,22.25315c-6.02014-4.87553-11.8894-9.55052-17.63464-14.37334
				c-0.78601-0.65974-1.39307-2.0836-1.32837-3.10583C1148.44678,129.25752,1149.00476,125.77815,1149.4574,122.10586z
				 M1204.44971,117.87562c-0.92749,3.13014-4.73499,5.40691-7.61523,8.45155c-4.20776-6.63228-9.83875-9.55848-16.62097-11.56535
				c6.76318-4.9894,15.83093-4.77264,21.11755-11.9853C1204.04346,107.76723,1205.91174,112.94125,1204.44971,117.87562z
				 M1202.4043,91.09475c6.25183,0.93053,11.01355,3.49849,14.80957,7.94482c1.23865,1.45084,1.4209,2.44005,0.11768,4.08314
				c-2.25183,2.83911-4.11646,5.98522-5.65881,8.28102c-2.62305-4.15929-5.66504-8.47678-8.11353-13.10798
				C1202.54077,96.36969,1202.78809,93.77444,1202.4043,91.09475z M1185.672,98.13477c0.255-0.13868,0.51013-0.27732,0.76514-0.416
				c0.80554,1.05094,2.05371,2.02531,2.25354,3.18098c0.12329,0.71243-1.35242,1.70143-2.66687,3.20156
				C1185.86279,101.37074,1185.76746,99.75275,1185.672,98.13477z M1194.2334,98.6265
				c-6.81445-10.05168-14.34619-10.30653-24.8125-0.82789c-0.10547-0.14765-0.33313-0.3712-0.29688-0.42879
				c3.76196-5.98238,13.64648-10.01241,20.37109-8.15537C1195.51172,90.8759,1197.79858,95.81006,1194.2334,98.6265z
				 M1171.51233,102.89124c0.27991,3.22063,0.51685,5.94759,0.75903,8.73479
				C1168.14111,109.27901,1168.01147,108.15628,1171.51233,102.89124z M1242.89771,100.22408
				c7.6665,1.05429,15.12134,3.64794,22.56836,5.96197c-7.61108,2.15385-14.20068,6.05442-17.28894,12.85602
				c-5.28149,11.63236-14.57434,15.6023-26.14111,16.64243c-7.37463,0.66315-14.75256,1.28894-22.12903,1.9315
				c-0.02063-0.12643-0.04126-0.25288-0.06201-0.37932c1.88098-0.76813,3.74524-1.58073,5.64587-2.2966
				c8.33447-3.13919,13.77612-9.09161,16.9021-17.30586c0.77014-2.02376,1.41882-4.09659,2.25403-6.09214
				C1228.04333,103.42777,1234.2041,99.02851,1242.89771,100.22408z M1132.17517,91.36591
				c2.77856-2.58871,6.33228-4.39043,9.66345-6.32919c3.93359-2.28934,8.23474-4.01579,11.93274-6.61719
				c2.43164-1.71061,4.36194-4.35207,6.02209-6.89908c4.35217-6.67729,9.19714-7.50561,15.25378-2.24068
				c1.0199,0.88652,1.88367,1.95255,3.17688,3.31111c1.2218-5.17494,4.12915-6.62629,8.44263-4.51645
				c1.42798,0.69839,2.79065,1.57545,4.07092,2.52257c6.95117,5.14255,14.40002,9.13075,22.97278,10.95338
				c4.32947,0.92047,8.14783,3.19363,10.71875,6.90117c3.90222,5.62724,2.76733,6.67365-2.1283,8.915
				c-4.25195-6.59108-9.78638-11.6236-17.75964-13.34817c-0.77734-0.16814-1.56616-0.3981-2.35034-0.40062
				c-5.34448-0.01714-10.55884-0.62568-15.84265-1.71014c-5.63269-1.15601-10.65564,1.52205-15.15283,4.9959
				c-1.08655,0.83934-2.53674,1.51975-3.88306,1.65839c-6.55969,0.67555-13.18591,1.63052-18.20435,6.12475
				c-3.47888,3.11547-6.16125,7.22589-8.77258,11.17403c-2.47778,3.74597-4.13525,4.31054-7.58899,1.54975
				C1127.8606,103.50481,1127.34131,95.86958,1132.17517,91.36591z M1139.71362,131.20471
				c-2.8291-0.77634-5.73706-1.37938-8.46973-2.43607c-0.88635-0.3427-1.74109-1.81789-1.87695-2.8698
				c-0.61011-4.7234-0.95618-9.48087-1.41772-14.44328C1143.172,115.04144,1143.35547,122.57827,1139.71362,131.20471z
				 M1101.20203,115.60422c0.60229-4.31666,2.01428-8.59711,3.62366-12.67446c1.53223-3.88189,5.10645-5.23319,9.10681-5.58449
				c2.71277-0.23821,5.40979-0.6548,9.00989-1.1032c-0.43091,4.47198-0.93713,8.58579-1.19946,12.71511
				c-0.38757,6.1012-0.60181,12.21345-0.92786,19.12585c-3.94324-0.6367-8.58289-0.94515-12.94556-2.20917
				C1103.11755,124.497,1100.51416,120.53528,1101.20203,115.60422z M1109.24731,175.70564
				c-5.77136-12.60477-8.27051-26.88484-6.26355-35.61154C1109.80676,151.4816,1110.07935,163.50305,1109.24731,175.70564z
				 M1112.70264,144.86612c-0.73889-1.51852-1.44763-3.05177-2.34705-4.95148c7.76318,0.66667,13.68347,4.18724,18.43005,8.75343
				c1.98413-1.59538,3.65735-3.9274,5.68372-4.29105c2.00354-0.35954,4.76123,0.77026,6.47791,2.13809
				c2.82397,2.25015,5.3335,5.02385,7.52283,7.9192c9.47058,12.52484,21.36511,21.46004,36.69263,25.5135
				c0.55017,0.14548,1.08923,0.33411,1.6311,0.50972c11.3197,3.66797,15.91541,11.56183,13.55444,23.28011
				c-3.30383,16.39847-19.0592,27.08081-35.45459,23.44553c-16.52649-3.66432-30.41223-11.74992-39.64075-26.47206
				c-5.35217-8.53831-7.53186-18.06398-7.80322-28.04437C1117.19141,163.16408,1116.98804,153.67328,1112.70264,144.86612z
				 M1076.91284,199.43985c9.10962,2.98833,16.27954,9.12648,23.49646,15.09364
				c10.14551,8.38873,20.34106,16.76653,32.73499,21.62077c6.62048,2.59306,13.6217,4.2141,19.92114,6.11397
				c-2.0249,1.72301-4.4342,1.95343-14.63428,0.64911c6.14148,5.092,12.46448,5.71268,19.86462,3.45369
				c-4.63025,7.99423-11.21313,12.3923-19.32874,14.29553c-14.07935,3.30173-26.43091-0.78326-36.41931-10.77417
				c-5.93054-5.93199-10.73926-13.00681-15.88013-19.7001c-3.89465-5.07062-7.28516-10.53931-11.32007-15.48843
				c-4.88574-5.99272-10.9502-10.36559-19.77356-11.10098C1062.36267,197.36795,1069.44702,196.9908,1076.91284,199.43985z"/>
		</g>
		<g>
			<path d="M1170.31506,470.1366c-19.73755-22.16406-36.46167-34.97629-61.11719-44.04507
				c-11.6438-4.28278-24.30762-4.89062-36.50183-7.20334c-17.14966-3.25256-34.1051-7.21027-50.38751-14.82144
				c-19.37476-9.56647-32.80206-24.56403-43.02081-42.79965c-10.06903-17.96838-20.50452-35.68463-33.61603-51.69904
				c-5.86066-7.15826-9.43591-15.58453-12.24042-24.41425c-3.30579-10.40793-7.85114-20.30005-14.2323-29.24724
				c-10.45685-14.66185-16.3092-31.50124-23.04565-47.96767c-6.80792-16.64131-14.29156-32.99605-25.94629-47.01994
				c-3.77875-4.54691-2.84113-7.19766,2.73334-9.13446c7.56494-2.62836,14.42438,0.11258,20.98108,3.14258
				c12.27362,5.67192,22.34082,14.31801,30.97021,24.67737c0.41656,0.50006,1.05029,0.81909,1.57812,1.21881
				c1.47461-1.00082,0.88715-2.3252,0.6814-3.38345c-2.16827-11.15079-1.99268-22.42435-1.81592-33.69214
				c0.11957-7.62395,4.11694-10.49182,11.19989-7.72539c11.45459,4.47394,17.64111,13.83919,22.35742,24.61803
				c6.94482,15.87216,7.07605,32.58102,6.68671,49.41391c-0.06171,2.67046-0.82886,5.57529,2.18225,8.9532
				c-3.14227-7.43489-0.16406-13.33519,1.07532-19.33382c2.0932-10.13101,3.38544-20.50273,6.91516-30.24883
				c3.11206-8.59294,8.09229-9.34538,13.99719-2.2361c8.81744,10.61584,10.67157,22.88081,7.03241,36.01993
				c-1.06476,3.84422-2.41425,7.59093-2.12292,12.34875c0.48584-0.94896,0.67975-1.38205,0.9198-1.78783
				c1.88837-3.19229,3.10913-7.84125,8.01147-6.59253c4.7876,1.21951,7.75824,4.91022,8.76758,9.931
				c1.49768,7.45035-0.76801,14.49654-2.91888,21.35323c-1.34503,4.28784-0.7179,7.61272,1.32782,11.207
				c4.90912,8.62514,8.6438,17.60643,9.17346,27.75471c0.1745,3.34286-0.1756,6.47803-0.71985,10.07233
				c-5.23792-1.85861-7.34125-6.37579-10.05023-10.18701c-1.48907-2.09491-2.03503-5.00732-3.80444-6.73151
				c-9.05774-8.82608-11.44623-20.30714-12.77466-32.0323c-0.74908-6.61171,0.38251-13.52525-1.75482-19.92166
				c-1.98279-5.93398-0.6286-11.37131,0.35321-17.12921c1.58441-9.29164,1.75287-18.61345-2.78552-27.3727
				c-1.5575-3.00609-3.6651-5.35898-7.03784-6.62346c-2.95251,3.48334-3.15552,7.83725-4.11816,11.73398
				c-2.27002,9.18913-3.70972,18.58083-5.84467,27.80736c-0.89563,3.87056-0.30695,6.9993,1.80634,10.28708
				c5.79547,9.01649,12.30292,18.01003,14.66895,28.43315c2.56952,11.31953,7.37903,21.48619,12.08063,31.83211
				c0.96796,2.12997,1.42285,4.22128,0.32794,6.34088c-1.65753,0.75299-2.32013-0.34427-3.01593-1.3443
				c-10.0755-14.48029-19.474-29.35435-26.65088-45.5358c-2.47498-5.58012-6.13226-10.43884-9.97528-15.0979
				c-2.26984-2.75182-3.20178-5.59485-2.89941-9.06531c0.87396-10.03096,0.45874-20.03835,0.09229-30.10112
				c-0.48041-13.19023-5.94501-23.96213-13.58356-34.00064c-2.94727-3.87326-6.87549-6.65749-12.24243-7.55495
				c-1.96313,6.13783-0.1579,11.96725,0.8042,17.55313c1.72571,10.01881,4.28729,19.80588,3.69458,30.18709
				c-0.3197,5.59996,4.10992,10.14557,5.82385,15.35318c4.64874,14.12508,14.66687,25.26933,20.93378,38.4756
				c0.22229,0.46849,0.69305,0.8934,0.7312,1.36424c1.02826,12.69447,10.13483,20.79082,17.13159,30.06288
				c2.84943,3.77603,5.14392,7.62146,4.70227,12.49405c-2.04773,0.64664-2.88165-0.6315-3.87207-1.54495
				c-5.72681-5.28174-10.80707-11.24875-17.0144-16.02246c-4.09906-3.1524-4.90045-8.05713-5.60553-12.52597
				c-1.59937-10.1369-6.38336-18.64365-12.62238-26.3273c-7.25653-8.93666-10.26343-19.88123-15.289-29.86664
				c-9.49274-18.86119-23.57727-33.17192-42.83667-42.03423c-4.18536-1.9259-8.85132-2.76883-14.30249-1.16022
				c3.65826,5.57399,6.94366,10.91293,10.55548,16.02092c10.93762,15.46838,19.65393,31.99788,25.34515,50.14752
				c3.64813,11.63417,10.20312,21.90752,16.64777,32.14044c8.33569,13.2356,14.45862,27.491,19.92896,42.05481
				c2.14136,5.70102,5.98053,10.18286,10.05762,14.34808c10.82159,11.0553,19.20764,23.76535,24.81177,38.01688
				c8.7522,22.25705,25.3385,36.56921,45.61554,47.47287c19.30676,10.38199,40.21997,14.88104,61.81812,17.69199
				c20.70996,2.69543,40.68787,8.23032,56.82654,22.83246c1.49829,1.35565,3.29041,2.38647,5.41663,3.90396
				c0.26953-5.78351,2.91626-10.82642,0.18591-16.17389c-0.7655-1.49927-0.54321-3.55832,1.41772-4.48535
				c1.66821-0.78873,1.64331,1.28598,2.26514,1.65155c9.62939-8.77356,8.62183-19.91638,6.47144-31.29102
				c4.29199-0.64395,5.73657,4.80896,9.84509,3.32999c0.33972-2.17108,1.78601-4.26895,0.51331-6.80267
				c-5.36523-10.68134-10.69019-21.4675-19.69226-29.62054c-11.2085-10.15152-24.91687-14.88425-39.5564-17.97067
				c-13.5282-2.85214-27.93018-3.90494-38.71936-14.41794c-1.21802-1.18683-2.90137-1.89493-3.19226-3.84232
				c1.25208-1.04803,2.41895-0.19226,3.37012,0.32156c12.50366,6.75403,26.2146,9.63718,39.96619,12.08691
				c24.47803,4.36053,43.68286,16.44998,57.24927,37.40155c2.41406,3.7283,3.59656,7.79517,4.20776,12.09097
				c0.22278,1.56625,0.21362,3.7435,2.23901,3.40588c5.03308-0.83896,10.20862,0.87854,15.10107-0.85754
				c5.33862-1.89447,8.03906,0.16953,7.08862,5.84586c-0.35315,2.10941-0.61072,4.11429,0.41028,6.07703
				c2.78369,5.35126,2.50354,10.99457,1.823,16.75272c-0.92102,7.79221-0.35706,15.37891,4.06372,22.30505
				c5.08362-8.50247,6.26038-9.70099,11.80603-11.88544c1.76697,4.16748-2.44409,6.87805-2.52856,10.98715
				c4.76794-1.37473,8.28613-4.73193,12.42712-6.8111c18.73657-9.40756,38.41931-14.849,59.25671-17.40967
				c23.41187-2.87711,44.95935-11.18878,64.77856-24.52264c16.73364-11.25793,27.17639-26.75757,34.69995-44.77393
				c4.94629-11.8443,12.26123-22.02121,21.06311-31.20898c6.56885-6.85696,11.12891-14.73328,14.23743-23.7832
				c4.50574-13.11789,11.66394-24.9696,18.76416-36.8792c7.23169-12.12985,13.51099-24.70987,17.86609-38.41696
				c5.09045-16.02037,14.43848-30.18361,24.07739-43.96432c2.76331-3.95052,5.53674-7.89381,8.6615-12.34775
				c-6.39453-2.1749-12.02649-0.61107-17.13977,2.05437c-20.96289,10.92758-35.69824,27.58803-43.87781,49.77237
				c-3.77612,10.24115-10.30981,18.70796-16.1886,27.63678c-4.03528,6.12888-6.62024,12.78632-7.90552,20.0853
				c-0.96362,5.47287-3.26343,10.29074-7.93347,14.12985c-6.06311,4.98428-11.41724,10.83176-17.60205,16.81625
				c-1.4259-4.82462-0.25427-8.26746,2.02539-11.34161c4.22083-5.69186,8.5658-11.29416,12.96558-16.8494
				c1.54041-1.94482,3.03308-4.02502,3.37939-6.36925c1.52039-10.29326,6.50134-18.8828,12.80469-26.81598
				c5.93445-7.4687,7.12207-17.30338,12.46838-24.93634c5.50171-7.85489,4.29932-16.76372,5.07898-25.33638
				c0.7395-8.12897,3.18384-15.89767,4.22546-23.93582c0.4834-3.72975,0.72949-7.46611-0.01233-11.6458
				c-6.63721,2.00066-11.02014,5.8145-14.68127,10.74753c-8.29285,11.17386-11.24402,23.9536-11.41956,37.56029
				c-0.09851,7.629-0.24719,15.27374,0.13281,22.88611c0.21265,4.25769-0.62366,7.63092-3.51367,10.88063
				c-8.53394,9.5959-12.74597,21.69785-18.47351,32.9117c-4.97839,9.74728-12.52063,17.81741-17.71716,27.41324
				c-0.43677,0.80634-1.18579,1.22726-2.31079,1.14496c-2.31531-1.49899-1.11292-3.44055-0.5531-5.40543
				c2.10217-7.37723,7.68408-13.36722,9.12903-20.81662c3.0343-15.6422,10.45605-29.11198,18.97021-42.19569
				c1.59509-2.45134,1.68774-5.39581,0.92249-8.07431c-3.23425-11.32121-4.45056-23.03951-6.96497-34.49992
				c-0.52454-2.39096-1.55896-4.12053-3.92761-5.66374c-7.07471,4.48016-9.07373,11.77831-9.84949,19.3194
				c-0.70667,6.86784-0.45667,13.85616,2.4082,20.40924c1.82324,4.17032-0.82092,7.74454-1.56079,11.55611
				c-0.66272,3.41418-1.35925,6.82364-0.99207,10.2877c0.92419,8.72-3.45679,16.95346-2.25769,25.68709
				c0.06543,0.47644-0.05176,1.16966-0.36401,1.47842c-9.18176,9.07837-12.69885,22.29288-22.5498,30.86722
				c-0.37146,0.3233-0.91125,0.45312-2.1073,1.02335c-0.8833-7.62936-1.01733-14.8511,1.30554-21.94901
				c2.15234-6.57651,4.77405-12.99474,8.63452-18.76274c1.87219-2.79739,1.80896-5.26135,0.65601-8.2468
				c-2.49561-6.4621-4.20898-13.10991-3.81189-20.16591c0.27307-4.85454,4.05518-10.55577,8.42542-12.17883
				c2.39832-0.89073,4.48987-0.29555,5.95386,1.8105c1.24023,1.78438,2.28516,3.70486,3.80908,6.21088
				c0.07471-4.47499-1.09473-8.03986-2.07812-11.59995c-3.08521-11.16899-2.31494-21.87454,3.63904-31.98024
				c1.04675-1.77675,2.24597-3.50578,3.61499-5.04272c4.97925-5.5901,10.18823-4.95113,13.08289,1.77707
				c3.29333,7.65482,3.99268,16.00333,5.86938,24.03778c1.31897,5.64787,2.55017,11.3163,4.10889,16.92975
				c0.32715-9.19054-0.29858-18.41273,1.50977-27.41498c3.37366-16.79448,7.99133-33.0181,23.32397-43.49843
				c2.39233-1.63528,4.97534-2.41629,7.65491-2.98532c4.60242-0.97726,7.21619,0.92508,8.14136,5.62283
				c2.08008,10.56117-0.39832,21.04684-0.56482,31.57097c-0.03723,2.36169-0.95032,4.72087,0.17102,7.43094
				c4.07922-3.88383,7.88733-7.74393,11.94421-11.32178c7.69202-6.78381,15.86548-12.82646,25.78723-16.10863
				c5.26685-1.74225,10.61597-1.66385,15.89465-0.75058c4.66943,0.80786,5.84949,5.108,2.4906,9.16605
				c-7.224,8.72792-12.66748,18.47485-17.74341,28.55168c-5.13855,10.20125-9.57556,20.64935-13.38452,31.39604
				c-4.59143,12.95406-11.06714,24.94498-18.87268,36.22063c-5.96497,8.6167-10.10791,18.15546-13.2312,28.01801
				c-4.1687,13.16397-11.56165,24.26425-20.08484,34.80527c-11.93127,14.75613-19.96509,31.93652-29.83679,47.97324
				c-13.50134,21.93298-32.82214,35.92111-57.42151,43.29205c-19.57642,5.86591-39.69507,8.8439-59.67896,12.62775
				c-19.89294,3.76666-36.60022,13.92398-51.97473,26.60065c-0.7926,0.6535-1.59424,1.39474-2.11768,2.26089
				c-5.20862,8.61963-10.65674,16.29807-20.71826,19.02798c-4.5415,1.23221-4.24866,2.73434-9.745,3.91846 M1168.42236,448.77795
				c1.35913,4.3797,3.71191,8.19693,6.87793,11.45724c1.55957,1.60614,2.87817,4.42578,5.90747,2.72485
				c2.82166-1.58432,2.95178-4.68872,1.90356-6.90674c-3.66455-7.7543-0.79382-14.97119,1.36841-22.16293
				c1.50269-4.99786,0.11597-8.65164-3.35767-12.04971c-1.57104-1.5369-3.71387-2.64838-4.17688-5.11963
				c-1.21692-6.49332-7.61877-9.71112-9.88086-15.55762c-0.04944-0.12778-0.63696-0.04724-1.39258-0.08456
				c2.60193,8.91974-1.03479,16.22662-5.90601,23.16959c-2.14307,3.05441-2.43604,5.83795,0.18005,8.89737
				C1163.68408,437.51761,1165.88757,442.81683,1168.42236,448.77795z M1196.74927,396.52307
				c-0.8418-1.95139,0.75745-4.08987-0.51672-6.26202c-1.43933,0.44452-2.85815,1.21429-4.30383,1.26852
				c-4.79297,0.17996-5.46411,2.59412-4.07312,6.57538c0.84912,2.43045,1.85913,4.95917,1.08679,7.582
				c-1.33093,4.52042-0.48645,8.814,0.63184,13.2366c1.104,4.36649,1.57483,8.83838-1.27051,12.95859
				c-0.72034,1.04318-1.65186,2.33572-0.39404,4.12543c4.57556-2.6163,10.20068-4.71893,10.50806-10.78403
				C1198.88904,415.91888,1201.71301,406.35739,1196.74927,396.52307z M1190.12549,439.91788
				c-4.04553,3.03671-6.2085,6.95377-5.09119,12.0777c1.00916,4.62793,2.51111,9.19604-2.13513,13.68213
				c15.31128-1.44794,24.04297-19.87857,17.22461-35.10513C1198.40845,435.50946,1193.61084,436.32468,1190.12549,439.91788z
				 M1003.02692,213.89066c-4.82648,1.21338-5.12823,5.38432-5.07361,9.00021c0.10944,7.23445,1.09338,14.4516,1.37787,21.68918
				c0.16327,4.15375,0.10138,8.10512,2.50452,11.88593c4.97986,7.83469,9.58466,15.90793,14.34369,23.88309
				c-1.7121-10.7774-5.16656-20.89511-11.09894-29.86169c-3.17432-4.79796-3.09015-8.52948-0.85883-13.79219
				C1007.28302,229.47462,1009.04907,221.52353,1003.02692,213.89066z M1355.83337,258.0737
				c-2.53638,6.16025-5.17725,12.28964-5.88501,19.02448c2.70813-3.28247,5.12219-6.64236,7.18677-10.2049
				c3.18945-5.50394,8.17041-10.94742,8.74109-16.77434c0.98364-10.04272,1.97961-20.2682,1.47485-30.45323
				c-0.146-2.94521-1.1687-5.71722-4.62219-6.92433c-5.11621,5.1765-5.53113,11.80463-3.02502,17.32417
				c4.17883,9.20375,4.37451,17.23015-2.11792,25.1422C1357.04285,255.86957,1356.65051,256.65512,1355.83337,258.0737z
				 M1182.08008,405.97003c1.05212,2.01282,2.10413,4.02563,3.0238,5.78519c4.18018-7.27756-2.28198-14.09952-0.48022-21.07263
				c-5.94202-1.58224-7.32397,3.57886-8.96118,6.48376c-1.52014,2.69739,2.42053,4.76486,4.65234,6.6131
				C1180.84094,404.21515,1181.24792,404.79477,1182.08008,405.97003z M1167.11035,459.45514
				c3.64478,6.25488,3.76794,6.3385,8.64453,5.71204c-7.88281-6.0304-10.43945-15.33487-14.90674-23.45148
				C1161.95032,447.74866,1161.98706,454.09811,1167.11035,459.45514z M1211.08704,439.14926
				c0.08179-0.66525,0.16345-1.33047,0.24524-1.9957c-0.25537-0.09076-0.51062-0.18149-0.76599-0.27222
				c-2.479,6.15546-4.95801,12.31088-7.43701,18.46634C1208.18542,451.31274,1210.26904,445.89954,1211.08704,439.14926z
				 M1174.8302,406.01718c2.73254,1.30136,4.12061,3.40939,4.12146,6.49313c0.00098,3.11752,1.90723,4.72537,5.0553,6.04239
				c-0.73499-4.93951-2.92456-8.49545-5.64648-11.78018C1177.35168,405.55518,1176.20776,404.45566,1174.8302,406.01718z"/>
			<path d="M1377.97314,311.651c-4.78247,8.479-12.94519,12.38669-20.47083,16.71136
				c-8.49512,4.88181-16.3855,10.26495-22.74561,17.75964c-12.84558,15.13708-30.33533,20.16632-49.04932,22.50577
				c-0.29077,0.03635-0.62061-0.23828-1.38489-0.55594c5.05139-3.55731,10.92456-4.25131,16.25439-5.90961
				c11.60791-3.61166,21.46277-9.66681,29.10144-18.94907c7.9043-9.60513,17.95129-16.07693,28.76917-21.6936
				c7.41101-3.84775,13.2157-9.35052,16.77515-17.04364c2.5083-5.42163,0.90295-9.76208-4.63782-12.17673
				c-3.06873-1.33731-6.24561-2.02142-9.61523-1.2688c-15.71362,3.50983-29.14209,11.61441-41.64673,21.28641
				c-9.9624,7.70572-18.68066,16.96268-29.13135,24.08173c-3.04053,2.07117-6.28918,4.03079-10.69312,4.85092
				c0.51306-1.29742,0.57568-2.10251,1.0072-2.45349c14.19543-11.54489,25.08118-26.94769,41.36426-36.01184
				c11.12659-6.19376,22.04285-12.98373,34.91699-15.29813c8.03906-1.44513,15.45142-0.9411,21.71069,5.1799
				c3.10657,3.03802,4.15442,6.43384,2.41089,10.32147C1379.69495,305.69293,1380.05603,308.86182,1377.97314,311.651z"/>
			<path d="M1007.09894,322.24353c13.5307,6.78372,24.28937,16.31467,34.05035,27.289
				c6.97485,7.8418,16.70032,11.38608,26.48303,14.46094c5.52112,1.73541,11.0625,3.40604,16.59485,5.10587
				c-0.10522,0.45459-0.21045,0.90921-0.31567,1.3638c-6.40955-1.1825-12.87231-2.13327-19.21814-3.59317
				c-15.77893-3.6301-28.22058-12.40494-38.54065-24.78052c-4.90521-5.88223-11.90692-9.34531-18.53607-13.13
				c-5.69507-3.2515-11.41833-6.49985-16.18262-11.18204c-5.50586-5.41098-7.05292-12.20764-6.64313-19.43042
				c0.3269-5.76285,8.51868-10.53522,16.67407-10.35165c9.89166,0.22263,18.75262,3.66495,27.64783,7.80853
				c17.07898,7.95587,31.45374,19.19797,44.0625,33.03802c4.00708,4.39832,8.75195,8.12399,12.84424,12.61746
				c-6.66516-0.61011-11.65503-4.39014-16.46716-8.43378c-15.33337-12.88489-29.80396-26.89011-48.37531-35.41544
				c-7.71124-3.53989-15.52063-5.69431-24.01184-4.82605c-6.51178,0.66589-9.66718,6.56314-6.83514,12.60052
				C993.84698,312.88202,999.33429,318.42908,1007.09894,322.24353z"/>
			<path d="M1213.64319,356.78912c-8.7179,6.26282-16.26147,20.90323-20.21362,31.61465
				c-6.19092,2.2709-0.55164-14.00372,0.87939-16.53513c6.78467-12.00183,16.21191-21.45178,28.23499-28.22113
				c9.58984-5.39944,20.12195-7.79092,30.79138-10.15378c12.23511-2.70966,24.78882-4.72427,36.02002-10.9191
				c1.19507-0.65918,2.57019-1.01166,3.89014-1.41324c0.43823-0.1333,0.96545,0.0256,2.32874,0.0965
				c-6.41272,5.95929-12.35071,11.08286-20.45642,13.29544c-12.47473,3.40515-25.35046,5.06964-37.68872,9.0799
				C1228.73071,346.46039,1221.41626,351.6091,1213.64319,356.78912z"/>
		</g>
		<path d="M1161.13269,474.68649c0.95618,7.89828,5.27698,12.75275,10.25964,17.32492
			c4.23572,3.88675,8.15442,8.11884,11.70886,11.69113c2.89771-3.05969,6.27344-6.97089,10.01538-10.49289
			c5.38379-5.06735,10.72253-10.04529,11.17017-18.16312c2.00696,6.30826,1.64062,12.51416-1.37085,18.23123
			c-2.26526,4.30032-5.2821,8.22223-8.13013,12.19373c-4.08057,5.69009-8.31201,11.27191-12.46265,16.87787
			c-2.47144-8.46344-9.78381-14.46884-15.38525-21.72214c-4.81555-6.23575-7.60022-13.22818-6.85327-21.30246
			c0.07361-0.7944,0.14087-1.59363,0.29163-2.37509C1160.48169,476.40311,1160.72461,475.88303,1161.13269,474.68649z"/>
	</g>
	<g>
		<path d="M1087.51782,2.26764c-34.52026,22.91588-60.95886,52.77473-77.39673,91.04539
			c-16.39984,38.18225-19.81049,77.87221-12.91949,118.66299C973.19666,129.37825,1011.59241,42.2117,1087.51782,2.26764z"/>
		<path d="M1275.9436,0.82678c83.92554,45.22309,113.51147,133.4026,92.96313,208.58704
			C1380.01562,121.0911,1350.06958,51.10781,1275.9436,0.82678z"/>
		<path d="M1313.94385,0c16.66162,10.94466,31.50598,23.91943,43.88586,39.55619
			c17.52661,22.13728,28.68152,47.4134,36.07532,74.48872c-7.58289-22.46658-17.71606-43.6467-31.40283-63.08622
			C1348.84106,31.55558,1332.64966,14.60061,1313.94385,0z"/>
		<path d="M971.59912,112.16425c12.39893-46.13253,37.02435-83.77135,77.06311-110.70281
			C1012.4032,31.0186,986.41382,67.70995,971.59912,112.16425z"/>
	</g>
</g>
<g>
	<g>
		<path d="M144.4624,641.60376c-0.16797-9.8125-1.16602-17.96387-2.99414-24.45117c-1.83252-6.4873-5.0332-11.35254-9.60596-14.5957
			c-4.57666-3.24414-11.18848-4.78027-19.83545-4.61621H90.81885l-0.24951,135.97949c0,4.49023-0.04248,8.3584-0.12451,11.60156
			c-0.08594,3.24316-0.29248,5.94922-0.62354,8.1084c3.49268-0.16309,6.94287-0.33105,10.354-0.49902
			c3.40723-0.16309,6.86133-0.33105,10.35449-0.49902v10.97852h-58.6333v-8.2334c6.31934-0.33203,10.604-1.82812,12.84961-4.49121
			c2.24561-2.65918,3.49316-6.27637,3.74268-10.85352c0.24951-4.57324,0.37402-9.6875,0.37402-15.34473L69.1123,598.1897
			l-25.69873,0.25c-10.479,0-17.88232,3.49316-22.20605,10.47949c-4.32715,6.98535-6.48682,17.88184-6.48682,32.68457H5.48926
			l1.49658-52.64551h145.46045l1.49707,52.64551H144.4624z"/>
		<path d="M260.23145,698.9895c0-7.31738-0.99805-12.55762-2.99414-15.71875c-1.99609-3.1582-5.15771-5.07227-9.48096-5.73828
			c-4.32764-0.66309-10.06592-0.83105-17.21582-0.49902l-18.21387,0.74805v57.13672c0,4.49023-0.04297,8.31934-0.12451,11.47656
			c-0.08594,3.16211-0.29248,5.82422-0.62402,7.98438l47.65527-0.74902c7.31738-0.16309,13.63672-1.37207,18.96191-3.61719
			c5.32178-2.24609,9.48145-6.19531,12.47559-11.85156c2.99365-5.65332,4.49072-13.3877,4.49072-23.2041h8.4834l-1.49707,48.65332
			H173.4043v-8.2334c6.31934-0.33203,10.64307-1.78613,12.97412-4.36621c2.32764-2.57715,3.61768-6.15234,3.86719-10.72852
			c0.24951-4.57324,0.37451-9.76953,0.37451-15.59473V616.90259c0-3.3252,0.08154-6.52539,0.24951-9.60547
			c0.16357-3.07617,0.33105-5.86328,0.49902-8.3584c-2.99414,0.16797-5.98828,0.33496-8.98242,0.49902
			c-2.99365,0.16797-5.98779,0.33496-8.98193,0.49902v-10.97852h120.01074l1.24756,43.66309h-8.2334
			c0-9.8125-1.49707-17.25488-4.49121-22.33008c-2.99414-5.07227-7.02881-8.4834-12.10059-10.22949
			c-5.07617-1.74707-10.77148-2.53418-17.09131-2.37109l-21.45703,0.49902c-6.15576,0.16797-10.56494,1.33398-13.22363,3.49316
			c-2.6626,2.16406-4.28467,5.36426-4.86523,9.60645c-0.58496,4.24121-0.87354,9.77344-0.87354,16.5918v39.91992l46.90674,0.25
			l-1.74658-21.45703h10.97803v52.39551H260.23145z"/>
		<path d="M465.07178,767.60278l-99.55176-133.7334c-1.49707-1.99609-2.95508-3.94922-4.36621-5.86328
			c-1.41504-1.91016-2.86914-3.86719-4.36621-5.86328h-0.24951l0.74854,106.78711c0,4.15918,0,8.31934,0,12.47461
			c0,4.16016-0.16748,8.23438-0.49902,12.22559c2.99414-0.16309,5.98828-0.33105,8.98193-0.49902
			c2.99414-0.16309,5.98828-0.33105,8.98242-0.49902v10.97852h-45.65918v-8.2334c5.15381,0,8.85742-1.12305,11.10303-3.36816
			c2.24561-2.24609,3.69971-4.9043,4.36621-7.98438c0.6626-3.07617,0.99805-5.86328,0.99805-8.3584l0.24951-120.01074
			c0-2.82617,0-5.65332,0-8.4834c0-2.82617,0-5.57129,0-8.2334c-2.6626,0.16797-5.40723,0.33496-8.23389,0.49902
			c-2.83008,0.16797-5.65674,0.33496-8.48291,0.49902v-10.97852h29.69092l93.56348,125.25098
			c2.15967,2.83008,4.28076,5.65625,6.3623,8.48242c2.07812,2.83105,4.19873,5.65723,6.3623,8.4834h0.24951l0.24951-114.27246
			c0-3.3252,0.08203-6.52539,0.24951-9.60547c0.16357-3.07617,0.33154-5.86328,0.49902-8.3584
			c-2.99414,0.16797-5.98779,0.33496-8.98193,0.49902c-2.99414,0.16797-5.98828,0.33496-8.98242,0.49902v-10.97852h45.90869v8.2334
			c-6.15576,0.16797-10.39697,1.58301-12.72461,4.24219c-2.33105,2.66211-3.57861,6.2373-3.74268,10.72852
			c-0.16748,4.49121-0.24951,9.73047-0.24951,15.71875l-0.49902,139.72168H465.07178z"/>
		<path d="M518.71338,755.3772c6.31934-0.33203,10.64307-1.78613,12.97412-4.36621
			c2.32764-2.57715,3.61768-6.15234,3.86719-10.72852c0.24951-4.57324,0.37451-9.76953,0.37451-15.59473V616.90259
			c0-3.3252,0.08154-6.52539,0.24951-9.60547c0.16357-3.07617,0.33105-5.86328,0.49902-8.3584
			c-2.99414,0.16797-5.98828,0.33496-8.98242,0.49902c-2.99365,0.16797-5.98779,0.33496-8.98193,0.49902v-10.97852l58.88281-0.24902
			c14.97021,0,28.69287,1.74609,41.16797,5.23926s23.24268,8.85742,32.31055,16.09277
			c9.06396,7.23633,16.0498,16.38574,20.95801,27.44531c4.9043,11.06445,7.36035,24.07715,7.36035,39.04785
			c0,11.47656-1.99561,22.45508-5.98779,32.93359c-3.99219,10.47949-9.97998,19.75391-17.96436,27.82031
			c-7.98389,8.06934-17.92529,14.4707-29.81543,19.21191c-11.89453,4.74023-25.65967,7.11035-41.29297,7.11035h-65.61914V755.3772z
			 M557.63574,734.16919c0,4.49121-0.04297,8.31934-0.12451,11.47754c-0.08594,3.16113-0.29248,5.82422-0.62402,7.9834
			c4.49121,0.16797,8.60791,0.29297,12.35059,0.375c3.74268,0.08496,6.90039,0.12402,9.48096,0.12402c2.57715,0,4.19873,0,4.86523,0
			c10.81055,0,20.58398-1.99609,29.31689-5.9873c8.73242-3.99219,16.21777-9.52051,22.45508-16.59277
			c6.23779-7.06738,11.06006-15.38281,14.47119-24.9502c3.40723-9.5625,5.11475-19.91699,5.11475-31.0625
			c0-15.80078-2.86914-29.48047-8.60791-41.04395c-5.73828-11.55859-14.51367-20.54102-26.32227-26.94629
			c-11.8125-6.40137-26.86475-9.60547-45.16016-9.60547c-6.15576,0-10.43994,1.24707-12.84961,3.74219
			c-2.41309,2.49512-3.74219,5.98828-3.9917,10.47949s-0.37451,9.73047-0.37451,15.71875V734.16919z"/>
		<path d="M760.72998,597.19165c-6.15576,0.16797-10.43994,1.58301-12.84961,4.24219
			c-2.41309,2.66211-3.74219,6.2373-3.9917,10.72852s-0.37451,9.73047-0.37451,15.71875v106.03906
			c0,4.49023-0.04297,8.3584-0.12451,11.60156c-0.08594,3.24316-0.29248,5.94922-0.62402,8.1084
			c2.99414-0.16309,5.98828-0.33105,8.98242-0.49902c2.99365-0.16309,5.98779-0.33105,8.98193-0.49902v10.97852H704.5918v-8.2334
			c6.31934-0.33203,10.64307-1.78613,12.97412-4.36621c2.32764-2.57715,3.61768-6.15234,3.86719-10.72852
			c0.24951-4.57324,0.37451-9.76953,0.37451-15.59473V616.90259c0-3.3252,0.08154-6.52539,0.24951-9.60547
			c0.16357-3.07617,0.33105-5.86328,0.49902-8.3584c-2.99414,0.16797-5.98828,0.33496-8.98242,0.49902
			c-2.99365,0.16797-5.98779,0.33496-8.98193,0.49902v-10.97852h56.13818V597.19165z"/>
		<path d="M924.65137,767.60278l-99.55176-133.7334c-1.49707-1.99609-2.95508-3.94922-4.36621-5.86328
			c-1.41504-1.91016-2.86914-3.86719-4.36621-5.86328h-0.24951l0.74854,106.78711c0,4.15918,0,8.31934,0,12.47461
			c0,4.16016-0.16748,8.23438-0.49902,12.22559c2.99414-0.16309,5.98828-0.33105,8.98193-0.49902
			c2.99414-0.16309,5.98828-0.33105,8.98242-0.49902v10.97852h-45.65918v-8.2334c5.15381,0,8.85742-1.12305,11.10303-3.36816
			c2.24561-2.24609,3.69971-4.9043,4.36621-7.98438c0.6626-3.07617,0.99805-5.86328,0.99805-8.3584l0.24951-120.01074
			c0-2.82617,0-5.65332,0-8.4834c0-2.82617,0-5.57129,0-8.2334c-2.6626,0.16797-5.40723,0.33496-8.23389,0.49902
			c-2.83008,0.16797-5.65674,0.33496-8.48291,0.49902v-10.97852h29.69092l93.56348,125.25098
			c2.15967,2.83008,4.28076,5.65625,6.3623,8.48242c2.07812,2.83105,4.19873,5.65723,6.3623,8.4834h0.24951l0.24951-114.27246
			c0-3.3252,0.08203-6.52539,0.24951-9.60547c0.16357-3.07617,0.33154-5.86328,0.49902-8.3584
			c-2.99414,0.16797-5.98779,0.33496-8.98193,0.49902c-2.99414,0.16797-5.98828,0.33496-8.98242,0.49902v-10.97852h45.90869v8.2334
			c-6.15576,0.16797-10.39697,1.58301-12.72461,4.24219c-2.33105,2.66211-3.57861,6.2373-3.74268,10.72852
			c-0.16748,4.49121-0.24951,9.73047-0.24951,15.71875l-0.49902,139.72168H924.65137z"/>
		<path d="M1061.12793,767.60278c-16.63477,0-31.35547-3.49316-44.16211-10.47949
			c-12.81055-6.98633-22.79053-17.04785-29.94043-30.18945c-7.15332-13.1377-10.72852-28.77441-10.72852-46.90625
			c0-11.80859,1.78564-23.3291,5.36426-34.55664c3.5752-11.22754,8.98242-21.41406,16.21777-30.56445
			c7.23584-9.14551,16.2998-16.42383,27.1958-21.83105c10.89258-5.40332,23.57812-8.10938,38.04932-8.10938
			c5.98779,0,12.05811,0.54199,18.21387,1.62207c6.15137,1.08398,12.10059,2.66309,17.83936,4.74023
			c5.73828,2.08203,10.93506,4.53418,15.59375,7.36035l-0.99805-11.97559h13.72266v57.13574h-8.98193
			c-0.6665-10.47852-3.4541-19.33594-8.3584-26.57129c-4.9082-7.23633-11.27051-12.76367-19.08691-16.59277
			c-7.82031-3.82422-16.55322-5.73828-26.19775-5.73828c-8.81836,0-17.09082,1.95703-24.82568,5.86328
			c-7.73438,3.91016-14.55713,9.39941-20.45898,16.46777c-5.90625,7.07129-10.52246,15.42969-13.84766,25.07422
			c-3.3291,9.64941-4.99023,20.2959-4.99023,31.93652c0,15.63672,2.82666,29.60938,8.4834,41.91699
			c5.65283,12.31152,13.51221,21.95605,23.57812,28.94238c10.06201,6.98535,21.66357,10.47852,34.80566,10.47852
			c4.49072,0,9.18848-0.41309,14.09668-1.24707c4.9043-0.83008,9.8125-2.20312,14.7207-4.11719
			c4.9043-1.91016,9.52002-4.28027,13.84766-7.11035v-30.43945c0-3.99219,0-8.02344,0-12.10059c0-4.07422,0-8.10938,0-12.10156
			c-2.83057,0.16797-5.73877,0.33594-8.73291,0.49902c-2.99414,0.16797-5.90625,0.33594-8.73242,0.49902v-10.97754h56.3877v8.2334
			c-4.65869,0-8.23389,1.20801-10.729,3.61719c-2.49463,2.41309-4.24121,5.32617-5.23926,8.7334
			c-0.99805,3.41113-1.58301,6.73633-1.74658,9.97949c-0.16748,3.24414-0.24951,5.7002-0.24951,7.36035v38.17383h-6.73633
			c-2.66309,0-6.32373,0.49902-10.97852,1.49707c-4.65869,0.99805-9.97998,2.66309-15.96826,4.99023
			c-5.15771,1.99609-11.14551,3.5752-17.96387,4.74023C1072.76904,767.01782,1066.61719,767.60278,1061.12793,767.60278z"/>
		<path d="M1364.5166,641.60376c-0.16797-9.8125-1.16602-17.96387-2.99414-24.45117
			c-1.83252-6.4873-5.0332-11.35254-9.60596-14.5957c-4.57666-3.24414-11.18848-4.78027-19.83545-4.61621h-21.20801
			l-0.24951,135.97949c0,4.49023-0.04248,8.3584-0.12451,11.60156c-0.08594,3.24316-0.29248,5.94922-0.62354,8.1084
			c3.49268-0.16309,6.94287-0.33105,10.354-0.49902c3.40723-0.16309,6.86133-0.33105,10.35449-0.49902v10.97852h-58.6333v-8.2334
			c6.31934-0.33203,10.604-1.82812,12.84961-4.49121c2.24561-2.65918,3.49316-6.27637,3.74268-10.85352
			c0.24951-4.57324,0.37402-9.6875,0.37402-15.34473l0.24951-126.49805l-25.69873,0.25
			c-10.479,0-17.88232,3.49316-22.20605,10.47949c-4.32715,6.98535-6.48682,17.88184-6.48682,32.68457h-9.23145l1.49658-52.64551
			h145.46045l1.49707,52.64551H1364.5166z"/>
		<path d="M1480.03613,767.60278c-15.80469,0-29.35938-2.66309-40.66992-7.98438
			c-11.3125-5.32129-20.50146-12.43164-27.56934-21.33203c-7.07178-8.89648-12.26855-18.75195-15.59375-29.56641
			c-3.32959-10.81055-4.99023-21.62109-4.99023-32.43555c0-10.47852,1.74658-21.08301,5.23975-31.81152
			s8.85742-20.58398,16.09277-29.56641c7.23584-8.98145,16.29932-16.21777,27.1958-21.70605
			c10.89258-5.48926,23.66016-8.23438,38.29883-8.23438c15.30078,0,28.52539,2.74512,39.67188,8.23438
			c11.14062,5.48828,20.33398,12.76758,27.56836,21.83105c7.23633,9.06836,12.64062,18.92285,16.21875,29.56641
			c3.57422,10.64648,5.36328,21.20801,5.36328,31.68652c0,10.31543-1.74609,20.83398-5.23828,31.5625
			c-3.49414,10.72852-8.85742,20.62695-16.09375,29.69043c-7.23438,9.06836-16.25977,16.34277-27.07031,21.83203
			C1507.64551,764.85767,1494.83887,767.60278,1480.03613,767.60278z M1480.53418,757.37329
			c10.3125,0,19.29492-2.20312,26.94727-6.6123c7.64844-4.40527,14.01172-10.31152,19.08594-17.71484
			c5.07227-7.39941,8.89648-15.63281,11.47852-24.7002c2.57617-9.06445,3.86719-18.1709,3.86719-27.32129
			c0-10.31055-1.41602-20.54102-4.24219-30.68848c-2.83008-10.14355-6.98633-19.375-12.47461-27.69434
			c-5.49023-8.31543-12.26953-15.00977-20.33398-20.08496c-8.07031-5.07227-17.25977-7.61035-27.57031-7.61035
			c-10.31641,0-19.33789,2.24512-27.07227,6.73633s-14.13867,10.44043-19.21094,17.83984
			c-5.07617,7.40332-8.90039,15.63672-11.47705,24.70117c-2.58105,9.06738-3.86768,18.25586-3.86768,27.56934
			c0,9.15039,1.28662,18.71289,3.86768,28.69336c2.57666,9.97949,6.52588,19.29688,11.85205,27.94434
			c5.32031,8.65039,12.05664,15.63672,20.20898,20.95801C1459.74121,754.71411,1469.38965,757.37329,1480.53418,757.37329z"/>
		<path d="M1740.01172,767.60278c-16.63477,0-31.35547-3.49316-44.16211-10.47949
			c-12.81055-6.98633-22.79004-17.04785-29.94043-30.18945c-7.15332-13.1377-10.72852-28.77441-10.72852-46.90625
			c0-11.80859,1.78516-23.3291,5.36426-34.55664c3.5752-11.22754,8.98242-21.41406,16.21777-30.56445
			c7.23535-9.14551,16.2998-16.42383,27.19629-21.83105c10.8916-5.40332,23.57715-8.10938,38.04883-8.10938
			c5.98828,0,12.05762,0.54199,18.21387,1.62207c6.15137,1.08398,12.10059,2.66309,17.83887,4.74023
			c5.73926,2.08203,10.93555,4.53418,15.59473,7.36035l-0.99805-11.97559h13.72266v57.13574h-8.98242
			c-0.66699-10.47852-3.4541-19.33594-8.3584-26.57129c-4.9082-7.23633-11.27051-12.76367-19.08691-16.59277
			c-7.82031-3.82422-16.55273-5.73828-26.19824-5.73828c-8.81836,0-17.09082,1.95703-24.8252,5.86328
			c-7.73438,3.91016-14.55664,9.39941-20.45898,16.46777c-5.90625,7.07129-10.52246,15.42969-13.84766,25.07422
			c-3.3291,9.64941-4.99023,20.2959-4.99023,31.93652c0,15.63672,2.82617,29.60938,8.4834,41.91699
			c5.65234,12.31152,13.51172,21.95605,23.57812,28.94238c10.06152,6.98535,21.66406,10.47852,34.80566,10.47852
			c4.49121,0,9.18848-0.41309,14.09668-1.24707c4.9043-0.83008,9.8125-2.20312,14.7207-4.11719
			c4.9043-1.91016,9.52051-4.28027,13.84766-7.11035v-30.43945c0-3.99219,0-8.02344,0-12.10059c0-4.07422,0-8.10938,0-12.10156
			c-2.83008,0.16797-5.73926,0.33594-8.73242,0.49902c-2.99414,0.16797-5.90625,0.33594-8.7334,0.49902v-10.97754h56.3877v8.2334
			c-4.6582,0-8.2334,1.20801-10.72852,3.61719c-2.49512,2.41309-4.24121,5.32617-5.23926,8.7334
			c-0.99805,3.41113-1.58301,6.73633-1.74609,9.97949c-0.16797,3.24414-0.25,5.7002-0.25,7.36035v38.17383h-6.73633
			c-2.66309,0-6.32324,0.49902-10.97852,1.49707c-4.6582,0.99805-9.98047,2.66309-15.96777,4.99023
			c-5.1582,1.99609-11.14648,3.5752-17.96484,4.74023C1751.65234,767.01782,1745.50098,767.60278,1740.01172,767.60278z"/>
		<path d="M1847.0459,763.6106v-8.2334c6.31934-0.33203,10.64258-1.78613,12.97461-4.36621
			c2.32715-2.57715,3.61719-6.15234,3.86719-10.72852c0.24902-4.57324,0.37402-9.76953,0.37402-15.59473V616.90259
			c0-3.3252,0.08203-6.52539,0.24902-9.60547c0.16406-3.07617,0.33203-5.86328,0.49902-8.3584
			c-2.99414,0.16797-5.9873,0.33496-8.98145,0.49902c-2.99414,0.16797-5.98828,0.33496-8.98242,0.49902v-10.97852
			c9.31348-0.16309,18.75195-0.33105,28.31836-0.49902c9.56348-0.16309,19.16895-0.08203,28.81738,0.25
			c16.13281,0.16699,29.14941,2.03906,39.04785,5.61328c9.89453,3.5791,17.17285,8.65137,21.83105,15.21973
			c4.65527,6.57324,6.98633,14.51465,6.98633,23.82812c0.16406,6.48633-1.04102,13.09863-3.61816,19.83496
			c-2.58008,6.73633-7.23535,12.76758-13.97168,18.08887c-6.73633,5.3252-16.42871,9.31738-29.06738,11.97656
			c3.3252,2.33105,6.2373,5.3252,8.73242,8.98242c2.49512,3.66016,5.32227,7.90137,8.4834,12.72461l16.96582,26.69629
			c2.82715,4.49121,5.57129,8.52637,8.23438,12.10059c2.6582,3.5791,5.73828,6.40527,9.23145,8.4834
			c3.49316,2.08203,7.81641,3.11914,12.97363,3.11914v8.2334h-31.4375c-4.82617-4.32324-8.85645-8.64648-12.10059-12.97461
			c-3.24316-4.32324-6.61133-9.23145-10.10449-14.7207l-16.7168-26.69629c-2.16406-3.49316-4.61621-7.52441-7.36035-12.10059
			c-2.74414-4.57324-5.86328-8.44043-9.35645-11.60254c-2.66309,0.16797-5.4502,0.25-8.3584,0.25
			c-2.91211,0-5.78125-0.08203-8.60742-0.25v48.4043c0,4.49023-0.04297,8.3584-0.125,11.60156
			c-0.08594,3.24316-0.29297,5.94922-0.62402,8.1084c1.99609-0.16309,3.99219-0.28809,5.98828-0.37402
			c1.99609-0.08203,3.99219-0.20605,5.98828-0.37402c1.99609-0.16406,3.99219-0.25,5.9873-0.25v10.97852H1847.0459z
			 M1901.4375,676.28442c9.14551-0.33105,17.17285-1.82812,24.07715-4.49121c6.90039-2.6582,12.35059-6.90039,16.34277-12.72461
			c3.99121-5.82031,5.9873-13.47266,5.9873-22.9541c0-6.31934-0.87305-11.85156-2.61914-16.5918
			c-1.74707-4.74023-4.45215-8.68945-8.10938-11.85156c-3.66016-3.15723-8.31934-5.52832-13.97168-7.11035
			c-5.65723-1.5791-12.31152-2.37109-19.96094-2.37109c-6.15527,0-10.43945,1.24805-12.84863,3.74316
			c-2.41309,2.49512-3.74316,5.94922-3.99219,10.35449c-0.25,4.40918-0.37402,9.60547-0.37402,15.59375v47.9043
			c2.6582,0.16797,5.19629,0.33496,7.60938,0.49902C1895.9873,676.45239,1898.60742,676.45239,1901.4375,676.28442z"/>
		<path d="M2059.86914,597.19165c-6.15527,0.16797-10.43945,1.58301-12.84863,4.24219
			c-2.41309,2.66211-3.74316,6.2373-3.99219,10.72852c-0.25,4.49121-0.37402,9.73047-0.37402,15.71875v106.03906
			c0,4.49023-0.04297,8.3584-0.125,11.60156c-0.08594,3.24316-0.29297,5.94922-0.62402,8.1084
			c2.99414-0.16309,5.98828-0.33105,8.98242-0.49902c2.99414-0.16309,5.98828-0.33105,8.98145-0.49902v10.97852h-56.1377v-8.2334
			c6.31934-0.33203,10.64258-1.78613,12.97461-4.36621c2.32715-2.57715,3.61719-6.15234,3.86719-10.72852
			c0.24902-4.57324,0.37402-9.76953,0.37402-15.59473V616.90259c0-3.3252,0.08203-6.52539,0.24902-9.60547
			c0.16406-3.07617,0.33203-5.86328,0.49902-8.3584c-2.99414,0.16797-5.9873,0.33496-8.98145,0.49902
			c-2.99414,0.16797-5.98828,0.33496-8.98242,0.49902v-10.97852h56.1377V597.19165z"/>
		<path d="M2174.13965,698.9895c0-7.31738-0.99805-12.55762-2.99414-15.71875c-1.99609-3.1582-5.15723-5.07227-9.48145-5.73828
			c-4.32715-0.66309-10.06543-0.83105-17.21582-0.49902l-18.21289,0.74805v57.13672c0,4.49023-0.04297,8.31934-0.125,11.47656
			c-0.08594,3.16211-0.29297,5.82422-0.62402,7.98438l47.65527-0.74902c7.31738-0.16309,13.63672-1.37207,18.96191-3.61719
			c5.32129-2.24609,9.48145-6.19531,12.47559-11.85156c2.99414-5.65332,4.49121-13.3877,4.49121-23.2041h8.48242l-1.49707,48.65332
			H2087.3125v-8.2334c6.31934-0.33203,10.64258-1.78613,12.97461-4.36621c2.32715-2.57715,3.61719-6.15234,3.86719-10.72852
			c0.24902-4.57324,0.37402-9.76953,0.37402-15.59473V616.90259c0-3.3252,0.08203-6.52539,0.24902-9.60547
			c0.16406-3.07617,0.33203-5.86328,0.49902-8.3584c-2.99414,0.16797-5.9873,0.33496-8.98145,0.49902
			c-2.99414,0.16797-5.98828,0.33496-8.98242,0.49902v-10.97852h120.01074l1.24805,43.66309h-8.23438
			c0-9.8125-1.49707-17.25488-4.49023-22.33008c-2.99414-5.07227-7.0293-8.4834-12.10156-10.22949
			c-5.0752-1.74707-10.77148-2.53418-17.09082-2.37109l-21.45703,0.49902c-6.15625,0.16797-10.56543,1.33398-13.22363,3.49316
			c-2.66309,2.16406-4.28418,5.36426-4.86523,9.60645c-0.58496,4.24121-0.87305,9.77344-0.87305,16.5918v39.91992l46.90625,0.25
			l-1.74707-21.45703h10.97852v52.39551H2174.13965z"/>
		<path d="M2242.50195,763.6106v-8.2334c6.31934-0.33203,10.64258-1.78613,12.97461-4.36621
			c2.32715-2.57715,3.61719-6.15234,3.86719-10.72852c0.24902-4.57324,0.37402-9.76953,0.37402-15.59473V616.90259
			c0-3.3252,0.08203-6.52539,0.24902-9.60547c0.16406-3.07617,0.33203-5.86328,0.49902-8.3584
			c-2.99414,0.16797-5.9873,0.33496-8.98145,0.49902c-2.99414,0.16797-5.98828,0.33496-8.98242,0.49902v-10.97852h115.76953
			l1.24707,43.66309h-8.2334c0-9.8125-1.58301-17.25488-4.74023-22.33008c-3.16211-5.07227-7.32129-8.4834-12.47559-10.22949
			c-5.15723-1.74707-10.89648-2.53418-17.21582-2.37109l-18.21387,0.49902c-6.15527,0.16797-10.39648,1.62207-12.72461,4.36719
			c-2.33105,2.74414-3.66016,6.3623-3.99121,10.85254c-0.33594,4.49121-0.49902,9.64941-0.49902,15.46973v42.91406l43.41309,0.25
			l-1.74609-21.70703h10.97754v52.64551h-7.9834c0-7.48535-1.04102-12.80664-3.11914-15.96875
			c-2.08203-3.15723-5.28223-5.07129-9.60645-5.73828c-4.32715-0.66309-9.97949-0.83008-16.96582-0.49902l-14.96973,0.74805
			v52.39648c0,4.49023-0.04297,8.3584-0.125,11.60156c-0.08594,3.24316-0.29297,5.94922-0.62402,8.1084
			c2.82617-0.16309,5.65332-0.28809,8.4834-0.37402c2.82617-0.08203,5.65234-0.20605,8.4834-0.37402
			c2.82617-0.16406,5.65234-0.25,8.48242-0.25v10.97852H2242.50195z"/>
	</g>
</g>
</svg>
